<svg xmlns="http://www.w3.org/2000/svg" viewBox="0 0 74.7 8.7" >
<path id="cjd-logo" class="" d="M6.4,5.8C6.3,6.2,6.2,6.6,6,7C5.8,7.3,5.6,7.6,5.3,7.8C5.1,8,4.7,8.2,4.4,8.3
	C4.1,8.4,3.7,8.5,3.3,8.5c-0.9,0-1.7-0.3-2.3-0.9C0.7,7.2,0.5,6.8,0.4,6.3c-0.1-0.5-0.1-1-0.1-1.7V4.3V4.1c0-0.7,0-1.3,0.1-1.7
	c0.1-0.5,0.3-0.9,0.7-1.2c0.3-0.3,0.6-0.5,1-0.7c0.4-0.2,0.8-0.2,1.3-0.2c0.4,0,0.8,0.1,1.1,0.2c0.3,0.1,0.6,0.3,0.9,0.5
	C5.6,1.1,5.8,1.4,6,1.7C6.2,2,6.3,2.4,6.4,2.9h-2C4.3,2.6,4.2,2.4,4,2.2C3.9,2.1,3.6,2,3.3,2C3.2,2,3,2,2.9,2.1
	C2.7,2.1,2.6,2.2,2.5,2.3C2.5,2.4,2.4,2.5,2.4,2.6c0,0.1-0.1,0.3-0.1,0.6c0,0.3,0,0.6,0,1.1c0,0.7,0,1.1,0.1,1.4
	c0,0.3,0.1,0.5,0.2,0.6C2.7,6.6,3,6.7,3.3,6.7c0.3,0,0.5-0.1,0.7-0.2c0.2-0.2,0.3-0.4,0.3-0.6H6.4z M11.8,0.3h-2v5.3
	c0,0.4-0.1,0.7-0.3,0.8C9.3,6.6,9.1,6.7,8.7,6.7c-0.2,0-0.4,0-0.5-0.1C8.1,6.5,8,6.4,7.8,6.3L6.5,7.6C6.8,7.8,7,8,7.2,8.1
	c0.2,0.1,0.4,0.2,0.7,0.3c0.3,0.1,0.5,0.1,0.8,0.1c0.5,0,1-0.1,1.5-0.3c0.5-0.2,0.8-0.5,1.1-1c0.3-0.4,0.4-1,0.4-1.6V0.3z M19.2,4.1
	c0-0.5,0-0.8,0-1.2c0-0.3-0.1-0.6-0.2-0.9c-0.1-0.3-0.3-0.6-0.5-0.8c-0.3-0.3-0.6-0.5-1-0.7c-0.4-0.2-0.8-0.2-1.3-0.2
	c-0.5,0-0.9,0.1-1.3,0.2c-0.4,0.1-0.7,0.4-1,0.7c-0.4,0.4-0.6,0.8-0.7,1.2c-0.1,0.5-0.1,1-0.1,1.7v0.3v0.3c0,0.7,0,1.3,0.1,1.7
	c0.1,0.5,0.3,0.9,0.7,1.2c0.2,0.2,0.4,0.4,0.6,0.5c0.2,0.1,0.5,0.2,0.7,0.3c0.3,0.1,0.6,0.1,0.9,0.1c0.5,0,0.9-0.1,1.3-0.2
	c0.4-0.2,0.7-0.4,1-0.7C18.7,7.3,18.9,7,19,6.7c0.1-0.3,0.2-0.6,0.2-0.9c0-0.3,0-0.7,0-1.2V4.3V4.1z M17.2,4.3c0,0.7,0,1.2-0.1,1.4
	c0,0.2-0.1,0.4-0.2,0.6c-0.2,0.2-0.5,0.4-0.8,0.4c-0.3,0-0.6-0.1-0.8-0.4c-0.1-0.1-0.1-0.2-0.2-0.3c0-0.1-0.1-0.3-0.1-0.6
	c0-0.3,0-0.6,0-1.1c0-0.5,0-0.8,0-1.1c0-0.3,0.1-0.4,0.1-0.6s0.1-0.2,0.2-0.3c0.1-0.1,0.2-0.2,0.3-0.3C15.8,2,16,2,16.2,2
	c0.2,0,0.3,0,0.5,0.1c0.1,0.1,0.3,0.2,0.3,0.3c0.1,0.1,0.2,0.3,0.2,0.6C17.2,3.2,17.2,3.6,17.2,4.3 M26.5,0.3h-2v3.1h-2.1V0.3h-2
	v8.1h2V5.2h2.1v3.2h2V0.3z M34.5,0.3h-2v4.1l-2.6-4.1h-1.7v8.1h2V4.3l2.6,4.1h1.7V0.3z M48.8,6.6h-3.5V5.2h3V3.4h-3V2.1h3.5V0.3
	h-5.5v8.1h5.5V6.6z M55.8,5.9c0-0.4,0-0.7-0.1-1c-0.1-0.3-0.2-0.5-0.5-0.7c-0.4-0.3-0.9-0.6-1.6-0.7l-1-0.1c-0.2,0-0.4-0.1-0.6-0.2
	C52,3,52,2.8,52,2.7c0-0.2,0.1-0.4,0.3-0.5C52.4,2,52.6,2,52.9,2c0.3,0,0.6,0,0.9,0.1c0.2,0.1,0.5,0.2,0.7,0.4l1.3-1.3
	c-0.3-0.3-0.7-0.6-1.2-0.7c-0.4-0.2-1-0.2-1.6-0.2c-0.6,0-1.1,0.1-1.6,0.3c-0.4,0.2-0.8,0.5-1,0.9C50.1,1.8,50,2.3,50,2.8
	c0,0.7,0.2,1.2,0.6,1.6c0.4,0.4,0.9,0.6,1.6,0.7l1,0.1c0.2,0,0.4,0.1,0.5,0.2c0.1,0.1,0.2,0.3,0.2,0.5c0,0.5-0.4,0.7-1.2,0.7
	c-0.4,0-0.7,0-1-0.1c-0.3-0.1-0.6-0.2-0.8-0.4l-1.3,1.3C50,7.8,50.5,8.1,51,8.2c0.5,0.2,1.1,0.2,1.8,0.2c0.6,0,1.1-0.1,1.6-0.3
	c0.5-0.2,0.9-0.5,1.1-0.9C55.7,6.9,55.8,6.4,55.8,5.9 M59.1,0.3h-2v8.1h2V0.3z M66.8,3.7h-3.2v1.7h1.2v0.1c0,0.4-0.1,0.7-0.3,0.9
	c-0.2,0.2-0.5,0.3-0.9,0.3c-0.3,0-0.6-0.1-0.8-0.3c-0.1-0.1-0.1-0.2-0.2-0.3c0-0.1-0.1-0.3-0.1-0.6c0-0.3,0-0.6,0-1.1
	c0-0.5,0-0.8,0-1.1c0-0.3,0.1-0.4,0.1-0.6c0-0.1,0.1-0.2,0.2-0.3C63,2.1,63.2,2,63.6,2c0.3,0,0.6,0.1,0.8,0.2
	c0.2,0.1,0.3,0.4,0.4,0.7h2c-0.1-0.8-0.4-1.4-0.9-1.9c-0.5-0.5-1.3-0.8-2.2-0.8c-0.5,0-0.9,0.1-1.3,0.2c-0.4,0.1-0.7,0.4-1,0.7
	c-0.4,0.4-0.6,0.8-0.7,1.2c-0.1,0.5-0.1,1-0.1,1.7v0.3v0.3c0,0.7,0,1.3,0.1,1.7c0.1,0.5,0.3,0.9,0.7,1.2c0.6,0.6,1.4,0.9,2.3,0.9
	c0.3,0,0.6,0,0.9-0.1c0.3-0.1,0.5-0.2,0.8-0.3c0.3-0.1,0.5-0.3,0.7-0.5c0.3-0.3,0.5-0.7,0.6-1.1c0.1-0.4,0.2-1,0.2-1.6V3.7z
	 M74.5,0.3h-2v4.1l-2.6-4.1h-1.7v8.1h2V4.3l2.6,4.1h1.7V0.3z M36,6.6v1.8h2V6.6H36z M42,2.7c0-0.3-0.1-0.5-0.2-0.8
	c-0.1-0.3-0.3-0.5-0.6-0.8c-0.5-0.5-1.3-0.8-2.2-0.8h-3v5.9h2V2.1h0.9c0.4,0,0.8,0.2,1,0.5C39.9,2.6,40,2.8,40,3c0,0.2,0,0.7,0,1.3
	c0,0.5,0,0.8,0,1.1c0,0.2,0,0.4-0.1,0.5c0,0.1-0.1,0.2-0.1,0.3c-0.2,0.3-0.5,0.5-1,0.5h-0.4v1.8H39c0.9,0,1.7-0.3,2.2-0.8
	c0.2-0.2,0.4-0.5,0.6-0.8C41.9,6.6,41.9,6.3,42,6C42,5.7,42,5.4,42,5V4.3V3.7C42,3.3,42,2.9,42,2.7z"/>
</svg>
