<svg id="back" class="poof out" xmlns="http://www.w3.org/2000/svg" viewBox="401.471 25.626 246.375 598.665">

<g id="codepen" class="out menu">
	<g class="pointer">
	
		<path fill="#5A5C5C" d="M-17.672,2182.182c0.864,0,1.611,0.334,2.241,1.002l6.252,6.783c-3.461,4.285-7.718,7.57-12.77,9.85
			c-5.053,2.281-11.118,3.42-18.195,3.42c-6.332,0-12.023-1.08-17.075-3.242c-5.053-2.162-9.369-5.172-12.946-9.025
			c-3.579-3.854-6.321-8.453-8.228-13.801c-1.908-5.348-2.861-11.186-2.861-17.518c0-6.408,1.062-12.277,3.186-17.605
			c2.123-5.328,5.11-9.918,8.965-13.771c3.854-3.854,8.464-6.852,13.831-8.996c5.367-2.143,11.295-3.213,17.782-3.213
			c6.331,0,11.864,1.012,16.604,3.037c4.737,2.025,8.797,4.709,12.18,8.051l-5.309,7.373c-0.315,0.471-0.718,0.885-1.209,1.238
			c-0.492,0.354-1.17,0.531-2.035,0.531c-0.904,0-1.828-0.355-2.771-1.062c-0.944-0.707-2.144-1.475-3.598-2.301
			c-1.456-0.826-3.294-1.592-5.516-2.301c-2.222-0.707-5.042-1.061-8.463-1.061c-4.011,0-7.697,0.699-11.06,2.094
			c-3.361,1.396-6.252,3.391-8.67,5.986s-4.306,5.75-5.662,9.467c-1.356,3.715-2.035,7.895-2.035,12.533
			c0,4.797,0.679,9.064,2.035,12.799c1.356,3.736,3.194,6.881,5.515,9.438c2.319,2.557,5.052,4.512,8.198,5.867
			c3.146,1.357,6.526,2.035,10.145,2.035c2.162,0,4.119-0.117,5.869-0.354c1.749-0.236,3.361-0.609,4.836-1.121
			c1.475-0.51,2.87-1.168,4.188-1.975s2.625-1.799,3.923-2.979c0.393-0.355,0.806-0.639,1.238-0.855
			S-18.184,2182.182-17.672,2182.182z"/>
		<path fill="#5A5C5C" d="M86.958,2159.65c0,6.252-1.043,12.043-3.126,17.369c-2.085,5.33-5.014,9.939-8.788,13.832
			c-3.775,3.893-8.316,6.93-13.625,9.111c-5.308,2.184-11.187,3.273-17.635,3.273c-6.449,0-12.338-1.09-17.665-3.273
			c-5.328-2.182-9.89-5.219-13.684-9.111c-3.795-3.893-6.734-8.502-8.817-13.832c-2.085-5.326-3.126-11.117-3.126-17.369
			s1.041-12.041,3.126-17.369c2.083-5.328,5.022-9.939,8.817-13.832c3.794-3.893,8.355-6.93,13.684-9.111
			c5.327-2.184,11.216-3.273,17.665-3.273c6.448,0,12.327,1.1,17.635,3.303c5.309,2.201,9.85,5.24,13.625,9.111
			c3.774,3.873,6.703,8.475,8.788,13.803C85.915,2147.609,86.958,2153.398,86.958,2159.65z M70.679,2159.65
			c0-4.68-0.619-8.877-1.857-12.592c-1.238-3.717-3.019-6.871-5.338-9.467c-2.32-2.596-5.142-4.58-8.464-5.957
			c-3.323-1.377-7.068-2.064-11.235-2.064c-4.169,0-7.924,0.688-11.266,2.064c-3.343,1.377-6.184,3.361-8.522,5.957
			c-2.34,2.596-4.139,5.75-5.397,9.467c-1.259,3.715-1.887,7.912-1.887,12.592s0.628,8.877,1.887,12.592
			c1.259,3.717,3.058,6.863,5.397,9.438c2.339,2.576,5.18,4.551,8.522,5.928c3.342,1.377,7.097,2.064,11.266,2.064
			c4.167,0,7.912-0.688,11.235-2.064c3.322-1.377,6.144-3.352,8.464-5.928c2.319-2.574,4.1-5.721,5.338-9.438
			C70.06,2168.527,70.679,2164.33,70.679,2159.65z"/>
		<path fill="#5A5C5C" d="M177.552,2159.65c0,6.252-1.042,11.994-3.126,17.223c-2.084,5.23-5.013,9.732-8.788,13.506
			c-3.774,3.775-8.315,6.705-13.624,8.789s-11.188,3.125-17.636,3.125h-32.557v-85.285h32.557c6.448,0,12.327,1.053,17.636,3.154
			c5.309,2.105,9.85,5.035,13.624,8.789c3.775,3.756,6.704,8.248,8.788,13.477C176.51,2147.658,177.552,2153.398,177.552,2159.65z
			 M161.332,2159.65c0-4.68-0.629-8.877-1.887-12.592c-1.259-3.717-3.048-6.861-5.367-9.438c-2.32-2.574-5.142-4.551-8.464-5.928
			c-3.323-1.375-7.068-2.064-11.236-2.064h-16.573v60.043h16.573c4.168,0,7.913-0.688,11.236-2.064
			c3.322-1.377,6.144-3.352,8.464-5.928c2.319-2.574,4.108-5.721,5.367-9.438C160.703,2168.527,161.332,2164.33,161.332,2159.65z"/>
		<path fill="#5A5C5C" d="M246.146,2117.008v12.621H208.34v23.652h29.785v12.209H208.34v24.123h37.807v12.68h-53.79v-85.285H246.146
			z"/>
		<path fill="#5A5C5C" d="M278.645,2172.271v30.021h-15.866v-85.285h27.78c5.701,0,10.636,0.668,14.805,2.004
			c4.167,1.338,7.608,3.207,10.321,5.604c2.713,2.398,4.719,5.27,6.016,8.611c1.298,3.344,1.946,7,1.946,10.971
			c0,4.129-0.688,7.914-2.063,11.354c-1.377,3.441-3.441,6.4-6.193,8.877c-2.753,2.477-6.193,4.404-10.321,5.779
			c-4.129,1.377-8.966,2.064-14.51,2.064H278.645z M278.645,2159.887h11.914c2.909,0,5.445-0.363,7.608-1.092
			c2.162-0.727,3.952-1.77,5.367-3.125c1.416-1.357,2.478-3.01,3.186-4.955c0.707-1.947,1.062-4.119,1.062-6.518
			c0-2.279-0.354-4.344-1.062-6.193c-0.708-1.848-1.77-3.42-3.186-4.719c-1.415-1.297-3.205-2.289-5.367-2.979
			c-2.163-0.688-4.699-1.031-7.608-1.031h-11.914V2159.887z"/>
		<path fill="#5A5C5C" d="M392.123,2117.008v12.621h-37.807v23.652h29.785v12.209h-29.785v24.123h37.807v12.68h-53.79v-85.285
			H392.123z"/>
		<path fill="#5A5C5C" d="M418.311,2117.096c0.472,0.059,0.894,0.178,1.268,0.354c0.373,0.178,0.737,0.434,1.091,0.768
			c0.354,0.334,0.747,0.777,1.18,1.326l44.767,57.035c-0.157-1.377-0.266-2.723-0.324-4.041c-0.059-1.316-0.089-2.545-0.089-3.686
			v-51.844h13.979v85.285h-8.198c-1.259,0-2.3-0.195-3.126-0.59c-0.825-0.393-1.632-1.1-2.418-2.123l-44.59-56.799
			c0.118,1.26,0.207,2.508,0.266,3.746c0.06,1.238,0.089,2.369,0.089,3.391v52.375h-13.979v-85.285h8.316
			C417.248,2117.008,417.838,2117.037,418.311,2117.096z"/>
	<path fill="#5A5C5C" d="M393.581,1793.646c0-0.24-0.068-0.463-0.171-0.721c-0.034-0.445-0.103-0.926-0.171-1.389
		c-0.104-0.293-0.24-0.549-0.293-0.807c-0.119-0.412-0.325-0.824-0.411-1.236c-0.086-0.273-0.257-0.549-0.429-0.807
		c-0.154-0.377-0.275-0.736-0.549-1.131c-0.172-0.24-0.309-0.498-0.447-0.773c-0.257-0.309-0.549-0.686-0.754-1.012
		c-0.172-0.24-0.309-0.463-0.584-0.703c-0.24-0.309-0.549-0.617-0.789-0.893c-0.24-0.24-0.412-0.463-0.721-0.67
		c-0.24-0.273-0.583-0.531-0.893-0.789c-0.205-0.188-0.48-0.395-0.754-0.566c-0.121-0.068-0.154-0.17-0.206-0.223l-177.785-118.42
		c-5.542-3.74-12.851-3.74-18.479,0l-177.63,118.42c-0.034,0.053-0.172,0.154-0.326,0.223c-0.223,0.172-0.429,0.379-0.703,0.566
		c-0.343,0.258-0.617,0.516-0.995,0.789c-0.172,0.207-0.378,0.43-0.617,0.67c-0.292,0.275-0.55,0.584-0.858,0.893
		c-0.172,0.24-0.343,0.463-0.549,0.703c-0.206,0.326-0.549,0.703-0.738,1.012c-0.171,0.275-0.205,0.533-0.429,0.773
		c-0.206,0.395-0.412,0.754-0.566,1.131c-0.12,0.258-0.291,0.533-0.325,0.807c-0.206,0.412-0.378,0.824-0.516,1.236
		c-0.034,0.258-0.188,0.514-0.205,0.807c-0.154,0.463-0.154,0.943-0.344,1.389c-0.034,0.258-0.103,0.48-0.103,0.721
		c-0.068,0.738-0.104,1.441-0.104,2.197v118.402c0,0.754,0.035,1.475,0.104,2.23c0,0.205,0.068,0.412,0.103,0.686
		c0.189,0.463,0.189,0.943,0.344,1.408c0.017,0.256,0.171,0.531,0.205,0.771c0.138,0.445,0.31,0.84,0.516,1.234
		c0.034,0.309,0.205,0.549,0.325,0.842c0.154,0.377,0.36,0.703,0.566,1.115c0.224,0.258,0.258,0.498,0.429,0.771
		c0.189,0.344,0.532,0.67,0.738,0.979c0.206,0.273,0.377,0.498,0.549,0.754c0.309,0.309,0.566,0.602,0.858,0.859
		c0.239,0.24,0.445,0.48,0.617,0.686c0.378,0.273,0.652,0.531,0.995,0.789c0.274,0.205,0.48,0.412,0.703,0.566
		c0.154,0.086,0.292,0.119,0.326,0.223l177.63,118.42c2.849,1.854,6.091,2.814,9.316,2.814c3.191,0,6.435-0.961,9.162-2.814
		l177.785-118.42c0.052-0.104,0.085-0.137,0.206-0.223c0.273-0.154,0.549-0.361,0.754-0.566c0.31-0.258,0.652-0.516,0.893-0.789
		c0.309-0.205,0.48-0.445,0.721-0.686c0.24-0.258,0.549-0.551,0.789-0.859c0.275-0.256,0.412-0.48,0.584-0.754
		c0.205-0.309,0.497-0.635,0.754-0.979c0.139-0.273,0.275-0.514,0.447-0.771c0.273-0.412,0.395-0.738,0.549-1.115
		c0.172-0.293,0.343-0.533,0.429-0.842c0.086-0.395,0.292-0.789,0.411-1.234c0.053-0.24,0.189-0.516,0.293-0.771
		c0.068-0.465,0.137-0.945,0.171-1.408c0.103-0.273,0.171-0.48,0.171-0.686c0.155-0.756,0.207-1.477,0.207-2.23v-118.402
		C393.788,1795.087,393.736,1794.384,393.581,1793.646z M216.175,1708.597l130.842,87.262l-58.473,39.119l-72.369-48.469V1708.597z
		 M182.752,1708.597v77.912l-72.438,48.469l-58.472-39.119L182.752,1708.597z M38.527,1827.067l41.795,27.984l-41.795,27.932
		V1827.067z M182.752,2001.456l-130.91-87.211l58.472-39.084l72.438,48.418V2001.456z M199.463,1894.548l-59.124-39.496
		l59.124-39.531l59.022,39.531L199.463,1894.548z M216.175,2001.456v-77.877l72.369-48.418l58.473,39.084L216.175,2001.456z
		 M360.365,1882.983l-41.796-27.932l41.796-27.984V1882.983z"/>
		 </g>
	<ellipse fill="none" cx="199.463" cy="1970.285" rx="417.326" ry="340.688"/>
</g>

</svg>
