<svg id="contact-box" xmlns="http://www.w3.org/2000/svg" viewBox="-269.5 262.5 1288 96" >
<g id="chris">
	<path d="M-210.047,325.169c0.37,0,0.739,0.069,1.109,0.208c0.37,0.139,0.724,0.377,1.063,0.716l6.193,6.518
		c-2.712,3.544-6.109,6.217-10.191,8.019c-4.083,1.803-8.914,2.704-14.49,2.704c-5.115,0-9.699-0.87-13.75-2.611
		c-4.052-1.74-7.488-4.144-10.307-7.21c-2.82-3.066-4.985-6.702-6.494-10.908c-1.51-4.206-2.265-8.774-2.265-13.705
		c0-5.022,0.862-9.637,2.588-13.843c1.725-4.206,4.137-7.834,7.233-10.885c3.097-3.05,6.802-5.423,11.116-7.118
		c4.314-1.694,9.075-2.542,14.282-2.542c2.526,0,4.907,0.224,7.141,0.67c2.234,0.447,4.322,1.063,6.263,1.849
		c1.941,0.786,3.728,1.726,5.361,2.819c1.633,1.094,3.081,2.304,4.345,3.628l-5.269,7.071c-0.339,0.432-0.74,0.825-1.202,1.179
		c-0.462,0.354-1.109,0.532-1.941,0.532c-0.555,0-1.079-0.123-1.571-0.37c-0.494-0.247-1.017-0.547-1.572-0.901
		c-0.555-0.354-1.164-0.74-1.826-1.156c-0.663-0.416-1.449-0.801-2.357-1.155c-0.909-0.354-1.972-0.654-3.189-0.901
		c-1.218-0.247-2.643-0.37-4.275-0.37c-2.835,0-5.424,0.501-7.765,1.502c-2.342,1.001-4.353,2.435-6.032,4.298
		c-1.68,1.865-2.989,4.122-3.929,6.771c-0.94,2.65-1.41,5.624-1.41,8.92c0,3.452,0.469,6.517,1.41,9.198
		c0.939,2.681,2.219,4.938,3.836,6.771c1.618,1.834,3.505,3.229,5.662,4.183c2.156,0.956,4.467,1.434,6.933,1.434
		c1.417,0,2.711-0.069,3.883-0.208c1.17-0.139,2.257-0.377,3.258-0.717c1.001-0.339,1.957-0.777,2.866-1.317
		c0.909-0.539,1.826-1.209,2.75-2.011c0.37-0.308,0.77-0.562,1.202-0.763C-210.957,325.269-210.51,325.169-210.047,325.169z"/>
	<path d="M-135.771,342.594h-15.715v-28.472h-27.363v28.472h-15.715V275.25h15.715v28.148h27.363V275.25h15.715V342.594z"/>
	<path d="M-109.056,317.681v24.913h-15.623V275.25h21.909c4.868,0,9.02,0.501,12.456,1.502c3.436,1.001,6.24,2.396,8.412,4.183
		c2.172,1.788,3.751,3.898,4.738,6.333c0.986,2.434,1.479,5.084,1.479,7.95c0,2.188-0.293,4.252-0.878,6.193
		c-0.586,1.941-1.456,3.737-2.612,5.385c-1.155,1.649-2.573,3.12-4.252,4.414c-1.68,1.294-3.613,2.357-5.801,3.189
		c1.047,0.524,2.026,1.171,2.935,1.941c0.908,0.771,1.702,1.71,2.38,2.82l14.328,23.434h-14.144c-2.619,0-4.499-0.985-5.639-2.958
		l-11.186-19.551c-0.493-0.862-1.071-1.479-1.733-1.849c-0.663-0.37-1.595-0.554-2.796-0.554H-109.056z M-109.056,306.912h6.286
		c2.126,0,3.936-0.27,5.431-0.809c1.494-0.539,2.719-1.286,3.675-2.242c0.955-0.955,1.648-2.072,2.08-3.351
		c0.431-1.278,0.647-2.658,0.647-4.137c0-2.958-0.963-5.27-2.889-6.933c-1.926-1.664-4.907-2.496-8.943-2.496h-6.286V306.912z"/>
	<path d="M-46.104,342.594h-15.715V275.25h15.715V342.594z"/>
	<path d="M3.905,288.932c-0.462,0.74-0.948,1.294-1.456,1.664s-1.164,0.555-1.964,0.555c-0.709,0-1.472-0.223-2.288-0.67
		c-0.817-0.446-1.741-0.947-2.773-1.502c-1.033-0.555-2.211-1.055-3.536-1.502c-1.325-0.447-2.835-0.67-4.529-0.67
		c-2.928,0-5.107,0.624-6.541,1.872c-1.433,1.248-2.149,2.935-2.149,5.061c0,1.356,0.431,2.48,1.294,3.374
		c0.862,0.894,1.995,1.664,3.397,2.311c1.401,0.647,3.004,1.241,4.807,1.779c1.803,0.54,3.644,1.141,5.523,1.803
		c1.879,0.663,3.721,1.441,5.523,2.334c1.802,0.895,3.404,2.034,4.807,3.42c1.402,1.387,2.534,3.074,3.397,5.061
		c0.862,1.988,1.294,4.384,1.294,7.188c0,3.113-0.54,6.024-1.618,8.735c-1.079,2.712-2.643,5.077-4.691,7.095
		c-2.049,2.019-4.576,3.605-7.58,4.761c-3.004,1.156-6.417,1.733-10.238,1.733c-2.096,0-4.229-0.216-6.401-0.646
		c-2.172-0.432-4.275-1.04-6.309-1.826c-2.034-0.785-3.945-1.717-5.731-2.796c-1.788-1.078-3.344-2.28-4.668-3.605l4.622-7.303
		c0.339-0.555,0.816-1.001,1.433-1.341c0.616-0.339,1.278-0.508,1.987-0.508c0.924,0,1.856,0.293,2.796,0.878
		c0.939,0.586,2.002,1.232,3.189,1.941c1.186,0.709,2.549,1.356,4.091,1.941c1.541,0.585,3.358,0.878,5.454,0.878
		c2.834,0,5.038-0.624,6.609-1.872c1.571-1.248,2.357-3.228,2.357-5.939c0-1.571-0.432-2.85-1.294-3.836
		c-0.863-0.986-1.996-1.803-3.397-2.45c-1.403-0.647-2.997-1.217-4.784-1.71c-1.787-0.492-3.621-1.04-5.5-1.641
		c-1.88-0.601-3.713-1.34-5.5-2.219c-1.787-0.878-3.382-2.034-4.784-3.466c-1.402-1.433-2.535-3.22-3.397-5.362
		c-0.863-2.141-1.294-4.784-1.294-7.927c0-2.526,0.508-4.992,1.525-7.395c1.017-2.404,2.511-4.545,4.483-6.425
		c1.972-1.879,4.391-3.381,7.256-4.506c2.866-1.125,6.147-1.687,9.845-1.687c2.064,0,4.075,0.162,6.032,0.485
		c1.957,0.324,3.813,0.802,5.569,1.433c1.757,0.632,3.397,1.387,4.923,2.265c1.525,0.878,2.889,1.872,4.09,2.981L3.905,288.932z"/>
</g>
<g id="at">
	<path d="M64.823,334.182c-0.986,0-1.941-0.1-2.866-0.301c-0.924-0.2-1.795-0.523-2.611-0.971c-0.817-0.446-1.557-1.031-2.219-1.756
		c-0.663-0.724-1.194-1.61-1.595-2.658c-1.849,2.034-3.775,3.482-5.777,4.345c-2.003,0.863-4.16,1.295-6.471,1.295
		c-2.003,0-3.76-0.347-5.27-1.04s-2.773-1.656-3.79-2.889c-1.017-1.232-1.779-2.696-2.288-4.392
		c-0.509-1.694-0.763-3.543-0.763-5.546c0-1.756,0.223-3.543,0.67-5.361c0.446-1.818,1.117-3.566,2.011-5.246
		c0.894-1.679,2.026-3.266,3.397-4.761c1.371-1.494,2.981-2.788,4.83-3.882c1.849-1.094,3.952-1.964,6.31-2.611
		c2.357-0.647,4.968-0.971,7.834-0.971c1.355,0,2.588,0.054,3.698,0.162c1.109,0.108,2.141,0.254,3.097,0.439
		c0.955,0.185,1.856,0.424,2.704,0.716c0.847,0.293,1.717,0.624,2.611,0.994l-4.53,17.518c-0.462,1.818-0.693,3.266-0.693,4.345
		c0,1.541,0.347,2.604,1.04,3.189c0.693,0.586,1.625,0.878,2.796,0.878c1.109,0,2.149-0.393,3.12-1.178s1.81-1.872,2.519-3.259
		c0.708-1.386,1.271-3.02,1.687-4.899c0.416-1.879,0.624-3.929,0.624-6.147c0-3.82-0.571-7.188-1.71-10.099
		c-1.14-2.912-2.766-5.354-4.876-7.326c-2.111-1.972-4.653-3.466-7.626-4.483c-2.974-1.017-6.279-1.525-9.915-1.525
		c-3.975,0-7.626,0.74-10.954,2.219c-3.328,1.479-6.193,3.505-8.597,6.078c-2.404,2.573-4.275,5.577-5.616,9.013
		c-1.34,3.437-2.01,7.111-2.01,11.024c0,4.93,0.747,9.26,2.242,12.987c1.494,3.729,3.559,6.841,6.193,9.337s5.762,4.368,9.383,5.616
		c3.62,1.248,7.541,1.871,11.763,1.871c2.434,0,4.675-0.131,6.725-0.393c2.049-0.262,3.905-0.601,5.569-1.017
		s3.143-0.886,4.438-1.41c1.294-0.523,2.403-1.047,3.328-1.571c0.677-0.369,1.31-0.555,1.895-0.555c1.078,0,1.833,0.57,2.265,1.71
		l1.941,4.992c-1.541,1.017-3.243,1.956-5.107,2.819c-1.865,0.862-3.882,1.618-6.055,2.265c-2.172,0.647-4.507,1.147-7.002,1.503
		c-2.496,0.354-5.162,0.531-7.996,0.531c-5.793,0-11.124-0.901-15.992-2.704c-4.869-1.803-9.083-4.384-12.642-7.742
		s-6.332-7.426-8.319-12.202c-1.988-4.775-2.981-10.122-2.981-16.038c0-3.236,0.431-6.409,1.294-9.521
		c0.862-3.112,2.095-6.039,3.698-8.782c1.602-2.742,3.528-5.269,5.778-7.58c2.249-2.311,4.761-4.306,7.534-5.985
		c2.773-1.679,5.778-2.981,9.013-3.906s6.64-1.387,10.214-1.387c2.989,0,5.909,0.34,8.759,1.017c2.85,0.678,5.547,1.664,8.089,2.958
		c2.542,1.294,4.883,2.882,7.025,4.761c2.142,1.88,3.982,4.014,5.523,6.401c1.541,2.389,2.742,5.023,3.605,7.904
		c0.862,2.882,1.294,5.955,1.294,9.221c0,3.297-0.501,6.401-1.502,9.313c-1.001,2.912-2.403,5.454-4.206,7.626
		c-1.802,2.173-3.944,3.891-6.424,5.153C70.454,333.551,67.75,334.182,64.823,334.182z M46.15,325.308
		c0.677,0,1.347-0.108,2.01-0.324c0.663-0.215,1.286-0.578,1.872-1.086c0.585-0.508,1.117-1.179,1.595-2.01
		c0.477-0.832,0.87-1.864,1.179-3.097l3.235-12.618c-0.74-0.092-1.479-0.139-2.219-0.139c-1.541,0-3.02,0.37-4.437,1.109
		c-1.418,0.74-2.658,1.741-3.721,3.004c-1.063,1.264-1.911,2.735-2.542,4.414c-0.632,1.68-0.947,3.459-0.947,5.338
		c0,1.818,0.347,3.174,1.04,4.067C43.909,324.861,44.886,325.308,46.15,325.308z"/>
</g>
<g id="c">
	<path d="M137.805,325.169c0.37,0,0.739,0.069,1.109,0.208c0.37,0.139,0.724,0.377,1.063,0.716l6.193,6.518
		c-2.712,3.544-6.109,6.217-10.191,8.019c-4.083,1.803-8.914,2.704-14.49,2.704c-5.115,0-9.699-0.87-13.75-2.611
		c-4.052-1.74-7.488-4.144-10.307-7.21c-2.82-3.066-4.985-6.702-6.494-10.908c-1.51-4.206-2.265-8.774-2.265-13.705
		c0-5.022,0.862-9.637,2.588-13.843c1.725-4.206,4.137-7.834,7.233-10.885c3.097-3.05,6.802-5.423,11.116-7.118
		c4.314-1.694,9.075-2.542,14.282-2.542c2.526,0,4.907,0.224,7.141,0.67c2.234,0.447,4.322,1.063,6.263,1.849
		c1.941,0.786,3.728,1.726,5.361,2.819c1.633,1.094,3.081,2.304,4.345,3.628l-5.269,7.071c-0.339,0.432-0.74,0.825-1.202,1.179
		c-0.462,0.354-1.109,0.532-1.941,0.532c-0.555,0-1.079-0.123-1.571-0.37c-0.494-0.247-1.017-0.547-1.572-0.901
		c-0.555-0.354-1.164-0.74-1.826-1.156c-0.663-0.416-1.449-0.801-2.357-1.155c-0.909-0.354-1.972-0.654-3.189-0.901
		c-1.218-0.247-2.643-0.37-4.275-0.37c-2.835,0-5.424,0.501-7.765,1.502c-2.342,1.001-4.353,2.435-6.032,4.298
		c-1.68,1.865-2.989,4.122-3.929,6.771c-0.94,2.65-1.41,5.624-1.41,8.92c0,3.452,0.469,6.517,1.41,9.198
		c0.939,2.681,2.219,4.938,3.836,6.771c1.618,1.834,3.505,3.229,5.662,4.183c2.156,0.956,4.467,1.434,6.933,1.434
		c1.417,0,2.711-0.069,3.883-0.208c1.17-0.139,2.257-0.377,3.258-0.717c1.001-0.339,1.957-0.777,2.866-1.317
		c0.909-0.539,1.826-1.209,2.75-2.011c0.37-0.308,0.77-0.562,1.202-0.763C136.896,325.269,137.343,325.169,137.805,325.169z"/>
</g>
<g id="john">
	<path d="M181.945,318.189c0,3.76-0.47,7.18-1.41,10.261c-0.94,3.082-2.357,5.725-4.252,7.927c-1.895,2.203-4.275,3.914-7.141,5.131
		s-6.24,1.825-10.122,1.825c-1.756,0-3.49-0.092-5.2-0.277c-1.71-0.185-3.49-0.492-5.338-0.924l0.832-9.105
		c0.062-0.801,0.377-1.448,0.948-1.941c0.57-0.492,1.363-0.739,2.38-0.739c0.523,0,1.17,0.085,1.941,0.254
		c0.77,0.17,1.694,0.254,2.773,0.254c1.509,0,2.827-0.208,3.952-0.624c1.124-0.416,2.057-1.109,2.796-2.08
		c0.74-0.97,1.294-2.241,1.664-3.812c0.37-1.572,0.555-3.513,0.555-5.824V275.25h15.623V318.189z"/>
	<path d="M259.502,308.899c0,4.869-0.84,9.399-2.519,13.589c-1.68,4.191-4.044,7.834-7.095,10.931
		c-3.05,3.097-6.725,5.523-11.023,7.279c-4.298,1.757-9.067,2.635-14.305,2.635c-5.239,0-10.015-0.878-14.329-2.635
		c-4.314-1.756-8.004-4.183-11.069-7.279c-3.067-3.097-5.439-6.74-7.118-10.931c-1.68-4.19-2.519-8.72-2.519-13.589
		c0-4.868,0.839-9.398,2.519-13.589c1.679-4.19,4.051-7.826,7.118-10.908c3.065-3.081,6.755-5.5,11.069-7.257
		s9.09-2.634,14.329-2.634c5.238,0,10.007,0.886,14.305,2.657c4.298,1.772,7.973,4.199,11.023,7.28
		c3.051,3.082,5.415,6.718,7.095,10.908C258.662,299.547,259.502,304.062,259.502,308.899z M243.51,308.899
		c0-3.328-0.432-6.324-1.294-8.99c-0.863-2.665-2.103-4.922-3.721-6.771c-1.618-1.849-3.598-3.266-5.939-4.252
		c-2.342-0.986-5.008-1.479-7.996-1.479c-3.02,0-5.708,0.493-8.065,1.479c-2.357,0.986-4.345,2.403-5.962,4.252
		c-1.618,1.849-2.858,4.106-3.721,6.771c-0.863,2.666-1.294,5.662-1.294,8.99c0,3.359,0.431,6.371,1.294,9.036
		c0.862,2.666,2.103,4.922,3.721,6.771c1.618,1.85,3.605,3.259,5.962,4.229c2.357,0.971,5.045,1.456,8.065,1.456
		c2.988,0,5.654-0.485,7.996-1.456c2.341-0.971,4.322-2.38,5.939-4.229c1.618-1.849,2.857-4.105,3.721-6.771
		C243.078,315.27,243.51,312.258,243.51,308.899z"/>
	<path d="M325.781,342.594h-15.715v-28.472h-27.363v28.472h-15.715V275.25h15.715v28.148h27.363V275.25h15.715V342.594z"/>
	<path d="M346.812,275.343c0.462,0.062,0.878,0.178,1.248,0.347c0.369,0.17,0.724,0.409,1.062,0.717
		c0.339,0.308,0.724,0.724,1.155,1.248l31.985,40.443c-0.124-1.294-0.216-2.549-0.277-3.767c-0.062-1.217-0.093-2.365-0.093-3.443
		V275.25h13.773v67.343h-8.135c-1.201,0-2.219-0.185-3.051-0.555c-0.831-0.37-1.633-1.047-2.403-2.033l-31.753-40.12
		c0.092,1.171,0.169,2.319,0.23,3.443c0.062,1.125,0.093,2.18,0.093,3.166v36.098h-13.773V275.25h8.228
		C345.778,275.25,346.349,275.282,346.812,275.343z"/>
</g>
<g id="dot">
	<path d="M403.985,335.337c0-1.109,0.208-2.141,0.624-3.097c0.416-0.955,0.985-1.786,1.71-2.496
		c0.724-0.708,1.579-1.271,2.565-1.687c0.985-0.416,2.064-0.624,3.235-0.624c1.14,0,2.203,0.208,3.189,0.624
		c0.985,0.416,1.849,0.979,2.588,1.687c0.74,0.71,1.317,1.541,1.733,2.496c0.416,0.956,0.624,1.987,0.624,3.097
		s-0.208,2.149-0.624,3.12s-0.993,1.811-1.733,2.519c-0.739,0.71-1.603,1.265-2.588,1.664c-0.986,0.4-2.05,0.602-3.189,0.602
		c-1.171,0-2.25-0.201-3.235-0.602c-0.986-0.399-1.842-0.954-2.565-1.664c-0.725-0.708-1.294-1.548-1.71-2.519
		S403.985,336.446,403.985,335.337z"/>
</g>
<g id="design">
	<path d="M489.678,308.899c0,4.869-0.84,9.36-2.52,13.473c-1.68,4.114-4.044,7.673-7.095,10.677
		c-3.051,3.005-6.725,5.347-11.023,7.026s-9.067,2.519-14.306,2.519h-26.16V275.25h26.16c5.238,0,10.007,0.848,14.306,2.542
		c4.299,1.695,7.973,4.037,11.023,7.026s5.415,6.54,7.095,10.654C488.838,299.585,489.678,304.062,489.678,308.899z
		 M473.686,308.899c0-3.328-0.433-6.332-1.295-9.013c-0.862-2.681-2.103-4.953-3.721-6.818c-1.617-1.864-3.598-3.297-5.938-4.298
		c-2.343-1.001-5.008-1.502-7.997-1.502h-10.445v43.308h10.445c2.989,0,5.654-0.5,7.997-1.502c2.341-1.001,4.321-2.434,5.938-4.299
		c1.618-1.864,2.858-4.136,3.721-6.817C473.253,315.277,473.686,312.258,473.686,308.899z"/>
	<path d="M540.52,275.25v12.018h-27.641v15.715h21.169v11.555h-21.169v16.038h27.641v12.018h-43.355V275.25H540.52z"/>
	<path d="M586.924,288.932c-0.463,0.74-0.948,1.294-1.456,1.664c-0.509,0.37-1.164,0.555-1.965,0.555
		c-0.709,0-1.472-0.223-2.288-0.67c-0.816-0.446-1.741-0.947-2.772-1.502c-1.033-0.555-2.212-1.055-3.536-1.502
		c-1.325-0.447-2.836-0.67-4.529-0.67c-2.929,0-5.107,0.624-6.541,1.872c-1.433,1.248-2.148,2.935-2.148,5.061
		c0,1.356,0.431,2.48,1.294,3.374c0.862,0.894,1.994,1.664,3.397,2.311c1.401,0.647,3.004,1.241,4.807,1.779
		c1.803,0.54,3.644,1.141,5.523,1.803c1.879,0.663,3.721,1.441,5.523,2.334c1.802,0.895,3.404,2.034,4.807,3.42
		c1.401,1.387,2.534,3.074,3.397,5.061c0.862,1.988,1.294,4.384,1.294,7.188c0,3.113-0.54,6.024-1.618,8.735
		c-1.079,2.712-2.643,5.077-4.691,7.095c-2.049,2.019-4.575,3.605-7.58,4.761c-3.004,1.156-6.417,1.733-10.237,1.733
		c-2.096,0-4.229-0.216-6.401-0.646c-2.173-0.432-4.275-1.04-6.31-1.826c-2.033-0.785-3.944-1.717-5.731-2.796
		c-1.787-1.078-3.344-2.28-4.668-3.605l4.622-7.303c0.339-0.555,0.816-1.001,1.433-1.341c0.616-0.339,1.278-0.508,1.987-0.508
		c0.925,0,1.856,0.293,2.797,0.878c0.939,0.586,2.002,1.232,3.188,1.941s2.55,1.356,4.091,1.941s3.358,0.878,5.454,0.878
		c2.835,0,5.038-0.624,6.609-1.872s2.357-3.228,2.357-5.939c0-1.571-0.432-2.85-1.294-3.836c-0.863-0.986-1.996-1.803-3.397-2.45
		c-1.402-0.647-2.997-1.217-4.784-1.71c-1.787-0.492-3.621-1.04-5.5-1.641c-1.88-0.601-3.713-1.34-5.5-2.219
		c-1.787-0.878-3.382-2.034-4.784-3.466c-1.402-1.433-2.534-3.22-3.396-5.362c-0.863-2.141-1.295-4.784-1.295-7.927
		c0-2.526,0.509-4.992,1.525-7.395c1.017-2.404,2.512-4.545,4.483-6.425c1.972-1.879,4.392-3.381,7.257-4.506
		c2.865-1.125,6.147-1.687,9.845-1.687c2.064,0,4.075,0.162,6.032,0.485c1.956,0.324,3.812,0.802,5.569,1.433
		c1.757,0.632,3.397,1.387,4.923,2.265c1.524,0.878,2.889,1.872,4.09,2.981L586.924,288.932z"/>
	<path d="M616.596,342.594h-15.715V275.25h15.715V342.594z"/>
	<path d="M660.782,331.316c2.156,0,4.067-0.186,5.731-0.555c1.664-0.37,3.235-0.862,4.715-1.479v-10.215h-6.656
		c-0.986,0-1.756-0.261-2.311-0.786c-0.555-0.523-0.832-1.186-0.832-1.987v-8.597h23.941v28.426
		c-1.726,1.264-3.521,2.35-5.384,3.259c-1.865,0.909-3.853,1.656-5.963,2.241c-2.111,0.586-4.36,1.017-6.748,1.294
		c-2.389,0.277-4.954,0.416-7.696,0.416c-4.93,0-9.49-0.87-13.681-2.611c-4.191-1.74-7.819-4.144-10.885-7.21
		c-3.066-3.066-5.47-6.702-7.211-10.908s-2.611-8.774-2.611-13.705c0-5.022,0.832-9.637,2.496-13.843s4.044-7.834,7.141-10.885
		c3.097-3.05,6.841-5.423,11.232-7.118c4.391-1.694,9.297-2.542,14.721-2.542c2.804,0,5.438,0.231,7.903,0.693
		c2.465,0.462,4.738,1.094,6.818,1.896c2.079,0.801,3.981,1.756,5.708,2.865c1.726,1.109,3.266,2.311,4.622,3.605l-4.53,6.887
		c-0.432,0.647-0.947,1.156-1.548,1.525s-1.256,0.555-1.965,0.555c-0.924,0-1.88-0.308-2.865-0.924
		c-1.232-0.74-2.396-1.379-3.489-1.918c-1.095-0.539-2.212-0.978-3.352-1.317c-1.141-0.338-2.342-0.585-3.605-0.739
		c-1.264-0.154-2.681-0.231-4.252-0.231c-2.928,0-5.562,0.516-7.903,1.548c-2.343,1.033-4.338,2.488-5.986,4.368
		c-1.648,1.88-2.919,4.137-3.812,6.771c-0.895,2.634-1.341,5.569-1.341,8.805c0,3.575,0.493,6.749,1.479,9.521
		c0.985,2.773,2.349,5.115,4.09,7.026c1.741,1.91,3.806,3.366,6.194,4.367C655.336,330.815,657.947,331.316,660.782,331.316z"/>
	<path d="M704.829,275.343c0.463,0.062,0.879,0.178,1.248,0.347c0.369,0.17,0.723,0.409,1.062,0.717
		c0.34,0.308,0.725,0.724,1.156,1.248l31.984,40.443c-0.123-1.294-0.217-2.549-0.277-3.767c-0.062-1.217-0.092-2.365-0.092-3.443
		V275.25h13.773v67.343h-8.135c-1.203,0-2.219-0.185-3.051-0.555s-1.635-1.047-2.404-2.033l-31.752-40.12
		c0.092,1.171,0.168,2.319,0.23,3.443c0.061,1.125,0.092,2.18,0.092,3.166v36.098h-13.773V275.25h8.227
		C703.796,275.25,704.366,275.282,704.829,275.343z"/>
</g>
<g id="ston">
	<path d="M802.308,288.932c-0.462,0.74-0.947,1.294-1.456,1.664c-0.508,0.37-1.163,0.555-1.964,0.555
		c-0.709,0-1.472-0.223-2.288-0.67c-0.816-0.446-1.741-0.947-2.773-1.502s-2.211-1.055-3.535-1.502
		c-1.325-0.447-2.836-0.67-4.53-0.67c-2.928,0-5.107,0.624-6.54,1.872s-2.149,2.935-2.149,5.061c0,1.356,0.432,2.48,1.295,3.374
		c0.862,0.894,1.994,1.664,3.396,2.311s3.005,1.241,4.808,1.779c1.802,0.54,3.643,1.141,5.522,1.803
		c1.88,0.663,3.721,1.441,5.523,2.334c1.803,0.895,3.404,2.034,4.808,3.42c1.401,1.387,2.534,3.074,3.396,5.061
		c0.862,1.988,1.295,4.384,1.295,7.188c0,3.113-0.54,6.024-1.618,8.735c-1.079,2.712-2.643,5.077-4.691,7.095
		c-2.05,2.019-4.576,3.605-7.58,4.761c-3.004,1.156-6.417,1.733-10.238,1.733c-2.096,0-4.229-0.216-6.401-0.646
		c-2.172-0.432-4.275-1.04-6.309-1.826c-2.034-0.785-3.944-1.717-5.731-2.796c-1.787-1.078-3.344-2.28-4.668-3.605l4.622-7.303
		c0.338-0.555,0.815-1.001,1.433-1.341c0.616-0.339,1.278-0.508,1.987-0.508c0.925,0,1.856,0.293,2.796,0.878
		c0.94,0.586,2.003,1.232,3.189,1.941c1.186,0.709,2.55,1.356,4.091,1.941c1.54,0.585,3.358,0.878,5.454,0.878
		c2.834,0,5.038-0.624,6.609-1.872s2.357-3.228,2.357-5.939c0-1.571-0.432-2.85-1.294-3.836c-0.863-0.986-1.996-1.803-3.397-2.45
		c-1.402-0.647-2.997-1.217-4.784-1.71c-1.787-0.492-3.621-1.04-5.5-1.641c-1.88-0.601-3.714-1.34-5.5-2.219
		c-1.788-0.878-3.383-2.034-4.784-3.466c-1.402-1.433-2.535-3.22-3.397-5.362c-0.862-2.141-1.294-4.784-1.294-7.927
		c0-2.526,0.509-4.992,1.525-7.395c1.017-2.404,2.511-4.545,4.483-6.425c1.972-1.879,4.391-3.381,7.257-4.506
		c2.865-1.125,6.147-1.687,9.845-1.687c2.064,0,4.074,0.162,6.031,0.485c1.957,0.324,3.813,0.802,5.57,1.433
		c1.756,0.632,3.396,1.387,4.922,2.265c1.525,0.878,2.889,1.872,4.091,2.981L802.308,288.932z"/>
	<path d="M863.779,275.25v12.387h-18.95v54.956h-15.622v-54.956h-18.95V275.25H863.779z"/>
	<path d="M933.943,308.899c0,4.869-0.84,9.399-2.52,13.589c-1.68,4.191-4.044,7.834-7.095,10.931s-6.725,5.523-11.023,7.279
		c-4.299,1.757-9.067,2.635-14.306,2.635s-10.015-0.878-14.328-2.635c-4.314-1.756-8.004-4.183-11.069-7.279
		c-3.066-3.097-5.439-6.74-7.118-10.931c-1.68-4.19-2.519-8.72-2.519-13.589c0-4.868,0.839-9.398,2.519-13.589
		c1.679-4.19,4.052-7.826,7.118-10.908c3.065-3.081,6.755-5.5,11.069-7.257c4.313-1.756,9.09-2.634,14.328-2.634
		s10.007,0.886,14.306,2.657c4.299,1.772,7.973,4.199,11.023,7.28c3.051,3.082,5.415,6.718,7.095,10.908
		C933.104,299.547,933.943,304.062,933.943,308.899z M917.951,308.899c0-3.328-0.433-6.324-1.295-8.99
		c-0.862-2.665-2.103-4.922-3.721-6.771c-1.617-1.849-3.598-3.266-5.938-4.252c-2.343-0.986-5.008-1.479-7.997-1.479
		c-3.02,0-5.708,0.493-8.065,1.479c-2.356,0.986-4.345,2.403-5.962,4.252c-1.618,1.849-2.858,4.106-3.721,6.771
		c-0.863,2.666-1.294,5.662-1.294,8.99c0,3.359,0.431,6.371,1.294,9.036c0.862,2.666,2.103,4.922,3.721,6.771
		c1.617,1.85,3.605,3.259,5.962,4.229c2.357,0.971,5.046,1.456,8.065,1.456c2.989,0,5.654-0.485,7.997-1.456
		c2.341-0.971,4.321-2.38,5.938-4.229c1.618-1.849,2.858-4.105,3.721-6.771C917.519,315.27,917.951,312.258,917.951,308.899z"/>
	<path d="M951.366,275.343c0.463,0.062,0.879,0.178,1.248,0.347c0.37,0.17,0.724,0.409,1.063,0.717
		c0.339,0.308,0.724,0.724,1.155,1.248l31.984,40.443c-0.123-1.294-0.216-2.549-0.277-3.767c-0.062-1.217-0.092-2.365-0.092-3.443
		V275.25h13.773v67.343h-8.135c-1.202,0-2.219-0.185-3.051-0.555s-1.634-1.047-2.403-2.033l-31.753-40.12
		c0.092,1.171,0.169,2.319,0.23,3.443c0.062,1.125,0.093,2.18,0.093,3.166v36.098H941.43V275.25h8.227
		C950.334,275.25,950.904,275.282,951.366,275.343z"/>
</g>
</svg>
