
<svg version="1.1" id="ewe" xmlns="http://www.w3.org/2000/svg"
	 viewBox="0 0 80.7 82.4" >
<path id="XMLID_234_" filter="url(#animatecloud)" d="M9.4,0.4v1.9H3.7v3.6h4.5v1.8H3.7v3.6h5.7v1.9H1.3V0.4H9.4z M14.9,6.6l-4.1-6.2h2.4
	c0.2,0,0.3,0,0.4,0.1c0.1,0,0.1,0.1,0.2,0.2l2.9,4.7c0-0.1,0.1-0.2,0.1-0.2c0-0.1,0.1-0.1,0.1-0.2l2.7-4.2c0.1-0.2,0.3-0.3,0.5-0.3
	h2.3l-4.1,6.1l4.3,6.7h-2.4c-0.2,0-0.3,0-0.4-0.1c-0.1-0.1-0.2-0.2-0.2-0.3l-3-4.9c0,0.1,0,0.1-0.1,0.2c0,0.1-0.1,0.1-0.1,0.2
	l-2.9,4.5c-0.1,0.1-0.1,0.2-0.2,0.3c-0.1,0.1-0.2,0.1-0.4,0.1h-2.2L14.9,6.6z M26.7,8.7v4.5h-2.4V0.4h4.2c0.9,0,1.6,0.1,2.2,0.3
	c0.6,0.2,1.1,0.5,1.6,0.8s0.7,0.8,0.9,1.3c0.2,0.5,0.3,1.1,0.3,1.7c0,0.6-0.1,1.2-0.3,1.7c-0.2,0.5-0.5,1-0.9,1.3
	c-0.4,0.4-0.9,0.7-1.6,0.9c-0.6,0.2-1.3,0.3-2.2,0.3H26.7z M26.7,6.8h1.8c0.4,0,0.8-0.1,1.1-0.2c0.3-0.1,0.6-0.3,0.8-0.5
	c0.2-0.2,0.4-0.5,0.5-0.7s0.2-0.6,0.2-1c0-0.3-0.1-0.7-0.2-0.9S30.7,3,30.5,2.8c-0.2-0.2-0.5-0.3-0.8-0.4s-0.7-0.2-1.1-0.2h-1.8V6.8
	z M43.8,0.4v1.9h-5.7v3.6h4.5v1.8h-4.5v3.6h5.7v1.9h-8.1V0.4H43.8z M48.7,8.2v5h-2.4V0.4h3.9c0.9,0,1.6,0.1,2.3,0.3
	c0.6,0.2,1.1,0.4,1.5,0.8c0.4,0.3,0.7,0.7,0.9,1.2c0.2,0.5,0.3,1,0.3,1.5c0,0.4-0.1,0.8-0.2,1.2s-0.3,0.7-0.6,1
	c-0.2,0.3-0.5,0.6-0.9,0.8c-0.4,0.2-0.8,0.4-1.2,0.6c0.3,0.2,0.6,0.4,0.8,0.7l3.2,4.7h-2.1c-0.2,0-0.4,0-0.5-0.1
	c-0.1-0.1-0.3-0.2-0.4-0.4l-2.7-4.1c-0.1-0.2-0.2-0.3-0.3-0.3c-0.1-0.1-0.3-0.1-0.5-0.1H48.7z M48.7,6.5h1.5c0.4,0,0.8-0.1,1.2-0.2
	C51.7,6.2,52,6,52.2,5.8c0.2-0.2,0.4-0.4,0.5-0.7s0.2-0.6,0.2-0.9c0-0.7-0.2-1.2-0.6-1.5c-0.4-0.3-1.1-0.5-2-0.5h-1.5V6.5z
	 M60.9,13.2h-2.4V0.4h2.4V13.2z M63.7,6.9h4.6v1.8h-4.6V6.9z M8,23.5c0.1,0.2,0.2,0.4,0.3,0.6c0.1-0.2,0.2-0.4,0.3-0.6
	c0.1-0.2,0.2-0.4,0.3-0.6l3.8-7.1c0-0.1,0.1-0.2,0.1-0.2c0-0.1,0.1-0.1,0.2-0.1c0.1,0,0.1,0,0.2,0c0.1,0,0.2,0,0.3,0h1.8v12.8h-2.1
	v-8.3c0-0.2,0-0.3,0-0.5c0-0.2,0-0.4,0-0.6l-3.9,7.3c-0.1,0.2-0.2,0.3-0.3,0.4c-0.1,0.1-0.3,0.1-0.5,0.1H8.1c-0.2,0-0.4,0-0.5-0.1
	c-0.1-0.1-0.3-0.2-0.3-0.4l-3.9-7.3c0,0.2,0,0.4,0,0.6c0,0.2,0,0.4,0,0.5v8.3H1.3V15.4h1.8c0.1,0,0.2,0,0.3,0s0.1,0,0.2,0
	c0.1,0,0.1,0.1,0.2,0.1c0.1,0.1,0.1,0.1,0.2,0.2l3.8,7.1C7.8,23.1,7.9,23.3,8,23.5z M26.3,15.4v1.9h-5.7v3.6h4.5v1.8h-4.5v3.6h5.7
	v1.9h-8.1V15.4H26.3z M30.2,15.4c0.1,0,0.1,0,0.2,0.1c0.1,0,0.1,0.1,0.2,0.1c0.1,0.1,0.1,0.1,0.2,0.2l6.7,8.6c0-0.2,0-0.4,0-0.6
	s0-0.4,0-0.6v-7.8h2.1v12.8h-1.2c-0.2,0-0.3,0-0.5-0.1c-0.1-0.1-0.2-0.2-0.4-0.3l-6.7-8.6c0,0.2,0,0.4,0,0.6c0,0.2,0,0.4,0,0.5v7.9
	h-2.1V15.4h1.3C30.1,15.4,30.1,15.4,30.2,15.4z M51.5,15.4v2h-3.9v10.9h-2.4V17.3h-3.9v-2H51.5z M63.4,28.2h-1.8
	c-0.2,0-0.4-0.1-0.5-0.2s-0.2-0.2-0.3-0.4l-1-2.6h-5.3l-1,2.6c0,0.1-0.1,0.3-0.3,0.4c-0.1,0.1-0.3,0.2-0.5,0.2h-1.9l5-12.8h2.4
	L63.4,28.2z M55.1,23.3h4.1l-1.6-4.3c-0.1-0.2-0.1-0.4-0.2-0.7c-0.1-0.3-0.2-0.5-0.3-0.8c-0.1,0.3-0.2,0.6-0.2,0.8
	c-0.1,0.3-0.2,0.5-0.2,0.7L55.1,23.3z M67.5,26.2h5.1v2h-7.5V15.4h2.4V26.2z M0.1,30.4h2c0.2,0,0.4,0,0.5,0.1
	c0.1,0.1,0.2,0.2,0.3,0.4l2.2,7.7c0.1,0.2,0.1,0.4,0.1,0.6c0,0.2,0.1,0.5,0.1,0.7c0-0.2,0.1-0.5,0.2-0.7s0.1-0.4,0.2-0.6l2.5-7.7
	c0-0.1,0.1-0.3,0.3-0.4c0.1-0.1,0.3-0.2,0.5-0.2h0.7c0.2,0,0.4,0,0.5,0.1c0.1,0.1,0.2,0.2,0.3,0.4l2.5,7.7c0.1,0.4,0.2,0.8,0.3,1.3
	c0-0.2,0.1-0.5,0.1-0.7c0-0.2,0.1-0.4,0.1-0.6l2.2-7.7c0-0.1,0.1-0.3,0.3-0.4c0.1-0.1,0.3-0.2,0.5-0.2h1.9l-4,12.8h-2.2l-2.8-8.8
	c0-0.1-0.1-0.2-0.1-0.4c0-0.1-0.1-0.3-0.1-0.4c0,0.1-0.1,0.3-0.1,0.4s-0.1,0.3-0.1,0.4l-2.8,8.8H4.1L0.1,30.4z M28.3,30.4v1.9h-5.7
	v3.6h4.5v1.8h-4.5v3.6h5.7v1.9h-8.1V30.4H28.3z M30.8,43.2V30.4h4.4c0.8,0,1.6,0.1,2.2,0.2c0.6,0.2,1.1,0.4,1.5,0.7
	c0.4,0.3,0.7,0.7,0.8,1.1c0.2,0.4,0.3,0.9,0.3,1.4c0,0.3,0,0.6-0.1,0.9c-0.1,0.3-0.2,0.5-0.4,0.8c-0.2,0.2-0.4,0.5-0.7,0.7
	s-0.6,0.4-1,0.5c1.8,0.4,2.6,1.3,2.6,2.9c0,0.5-0.1,1-0.3,1.5c-0.2,0.5-0.5,0.9-0.9,1.2c-0.4,0.3-0.9,0.6-1.5,0.8s-1.2,0.3-2,0.3
	H30.8z M33.2,35.9h1.9c0.8,0,1.4-0.1,1.8-0.4c0.4-0.3,0.6-0.8,0.6-1.4c0-0.7-0.2-1.1-0.6-1.4c-0.4-0.3-1-0.4-1.8-0.4h-2V35.9z
	 M33.2,37.6v3.8h2.4c0.4,0,0.8-0.1,1.1-0.2c0.3-0.1,0.5-0.2,0.7-0.4s0.3-0.4,0.4-0.6c0.1-0.2,0.1-0.5,0.1-0.8c0-0.3,0-0.5-0.1-0.8
	s-0.2-0.4-0.4-0.6s-0.4-0.3-0.7-0.4s-0.7-0.1-1.1-0.1H33.2z M9.4,45.4v1.9H3.7v3.6h4.5v1.8H3.7v3.6h5.7v1.9H1.3V45.4H9.4z
	 M14.9,51.6l-4.1-6.2h2.4c0.2,0,0.3,0,0.4,0.1c0.1,0,0.1,0.1,0.2,0.2l2.9,4.7c0-0.1,0.1-0.2,0.1-0.2c0-0.1,0.1-0.1,0.1-0.2l2.7-4.2
	c0.1-0.2,0.3-0.3,0.5-0.3h2.3l-4.1,6.1l4.3,6.7h-2.4c-0.2,0-0.3,0-0.4-0.1s-0.2-0.2-0.2-0.3l-3-4.9c0,0.1,0,0.1-0.1,0.2
	c0,0.1-0.1,0.1-0.1,0.2l-2.9,4.5c-0.1,0.1-0.1,0.2-0.2,0.3s-0.2,0.1-0.4,0.1h-2.2L14.9,51.6z M26.7,53.7v4.5h-2.4V45.4h4.2
	c0.9,0,1.6,0.1,2.2,0.3c0.6,0.2,1.1,0.5,1.6,0.8s0.7,0.8,0.9,1.3c0.2,0.5,0.3,1.1,0.3,1.7c0,0.6-0.1,1.2-0.3,1.7
	c-0.2,0.5-0.5,1-0.9,1.3c-0.4,0.4-0.9,0.7-1.6,0.9c-0.6,0.2-1.3,0.3-2.2,0.3H26.7z M26.7,51.8h1.8c0.4,0,0.8-0.1,1.1-0.2
	s0.6-0.3,0.8-0.5c0.2-0.2,0.4-0.5,0.5-0.7s0.2-0.6,0.2-1c0-0.3-0.1-0.7-0.2-0.9s-0.3-0.5-0.5-0.7c-0.2-0.2-0.5-0.3-0.8-0.4
	s-0.7-0.2-1.1-0.2h-1.8V51.8z M43.8,45.4v1.9h-5.7v3.6h4.5v1.8h-4.5v3.6h5.7v1.9h-8.1V45.4H43.8z M48.7,53.2v5h-2.4V45.4h3.9
	c0.9,0,1.6,0.1,2.3,0.3c0.6,0.2,1.1,0.4,1.5,0.8c0.4,0.3,0.7,0.7,0.9,1.2c0.2,0.5,0.3,1,0.3,1.5c0,0.4-0.1,0.8-0.2,1.2
	s-0.3,0.7-0.6,1c-0.2,0.3-0.5,0.6-0.9,0.8c-0.4,0.2-0.8,0.4-1.2,0.6c0.3,0.2,0.6,0.4,0.8,0.7l3.2,4.7h-2.1c-0.2,0-0.4,0-0.5-0.1
	s-0.3-0.2-0.4-0.4l-2.7-4.1c-0.1-0.2-0.2-0.3-0.3-0.3s-0.3-0.1-0.5-0.1H48.7z M48.7,51.5h1.5c0.4,0,0.8-0.1,1.2-0.2
	c0.3-0.1,0.6-0.3,0.8-0.5c0.2-0.2,0.4-0.4,0.5-0.7c0.1-0.3,0.2-0.6,0.2-0.9c0-0.7-0.2-1.2-0.6-1.5c-0.4-0.3-1.1-0.5-2-0.5h-1.5V51.5
	z M57.8,51.9h4.6v1.8h-4.6V51.9z M4,73.2H1.6V60.4H4V73.2z M15.3,60.4v1.9H9.6v3.6h4.5v1.8H9.6v3.6h5.7v1.9H7.2V60.4H15.3z
	 M19.3,60.4c0.1,0,0.1,0,0.2,0.1c0.1,0,0.1,0.1,0.2,0.1c0.1,0.1,0.1,0.1,0.2,0.2l6.7,8.6c0-0.2,0-0.4,0-0.6s0-0.4,0-0.6v-7.8h2.1
	v12.8h-1.2c-0.2,0-0.3,0-0.5-0.1c-0.1-0.1-0.2-0.2-0.4-0.3l-6.7-8.6c0,0.2,0,0.4,0,0.6c0,0.2,0,0.4,0,0.5v7.9h-2.1V60.4H19
	C19.1,60.4,19.2,60.4,19.3,60.4z M40.4,70.2c0.1,0,0.2,0,0.3,0.2l0.9,1c-0.5,0.6-1.2,1.1-1.9,1.5S38,73.3,37,73.3
	c-1,0-1.8-0.2-2.6-0.5c-0.8-0.3-1.4-0.8-1.9-1.4c-0.5-0.6-1-1.3-1.2-2.1c-0.3-0.8-0.4-1.7-0.4-2.6c0-1,0.2-1.8,0.5-2.7
	c0.3-0.8,0.8-1.5,1.3-2.1s1.3-1,2.1-1.4c0.8-0.3,1.7-0.5,2.7-0.5c1,0,1.8,0.2,2.5,0.5c0.7,0.3,1.3,0.7,1.8,1.2L40.9,63
	c0,0.1-0.1,0.1-0.2,0.2c-0.1,0.1-0.2,0.1-0.3,0.1c-0.1,0-0.3-0.1-0.4-0.2c-0.1-0.1-0.3-0.2-0.5-0.3c-0.2-0.1-0.5-0.2-0.8-0.3
	c-0.3-0.1-0.8-0.2-1.3-0.2c-0.6,0-1.2,0.1-1.7,0.3c-0.5,0.2-0.9,0.5-1.3,0.9c-0.4,0.4-0.6,0.9-0.9,1.4c-0.2,0.6-0.3,1.2-0.3,1.9
	c0,0.7,0.1,1.4,0.3,1.9c0.2,0.6,0.5,1,0.8,1.4c0.3,0.4,0.8,0.7,1.2,0.9s1,0.3,1.5,0.3c0.3,0,0.6,0,0.9-0.1c0.3,0,0.5-0.1,0.7-0.2
	c0.2-0.1,0.4-0.2,0.6-0.3s0.4-0.3,0.6-0.4c0.1-0.1,0.1-0.1,0.2-0.1S40.3,70.2,40.4,70.2z M51.9,60.4v1.9h-5.7v3.6h4.5v1.8h-4.5v3.6
	h5.7v1.9h-8.1V60.4H51.9z M61.2,62.7c-0.1,0.1-0.1,0.2-0.2,0.3C60.9,63,60.8,63,60.7,63s-0.3,0-0.4-0.1c-0.1-0.1-0.3-0.2-0.5-0.3
	s-0.4-0.2-0.7-0.3s-0.6-0.1-1-0.1c-0.3,0-0.6,0-0.9,0.1s-0.5,0.2-0.6,0.3c-0.2,0.1-0.3,0.3-0.4,0.5s-0.1,0.4-0.1,0.7
	c0,0.3,0.1,0.6,0.3,0.8s0.4,0.4,0.7,0.5c0.3,0.1,0.6,0.3,1,0.4c0.4,0.1,0.7,0.2,1.1,0.4c0.4,0.1,0.7,0.3,1.1,0.4
	c0.4,0.2,0.7,0.4,1,0.6c0.3,0.3,0.5,0.6,0.7,0.9s0.3,0.8,0.3,1.4c0,0.6-0.1,1.1-0.3,1.6s-0.5,0.9-0.9,1.3c-0.4,0.4-0.8,0.7-1.4,0.9
	c-0.6,0.2-1.2,0.3-1.9,0.3c-0.4,0-0.8,0-1.2-0.1s-0.8-0.2-1.1-0.3c-0.4-0.1-0.7-0.3-1-0.5c-0.3-0.2-0.6-0.4-0.8-0.7l0.7-1.1
	c0.1-0.1,0.1-0.2,0.2-0.2c0.1-0.1,0.2-0.1,0.3-0.1c0.1,0,0.3,0.1,0.5,0.2c0.2,0.1,0.4,0.3,0.6,0.4c0.2,0.1,0.5,0.3,0.8,0.4
	c0.3,0.1,0.7,0.2,1.1,0.2c0.7,0,1.2-0.2,1.6-0.5c0.4-0.3,0.6-0.8,0.6-1.4c0-0.3-0.1-0.6-0.3-0.8c-0.2-0.2-0.4-0.4-0.7-0.5
	s-0.6-0.3-1-0.4c-0.4-0.1-0.7-0.2-1.1-0.3s-0.7-0.3-1.1-0.4c-0.4-0.2-0.7-0.4-1-0.6c-0.3-0.3-0.5-0.6-0.7-1
	c-0.2-0.4-0.3-0.9-0.3-1.5c0-0.5,0.1-0.9,0.3-1.4s0.5-0.8,0.8-1.2c0.4-0.3,0.8-0.6,1.3-0.8c0.5-0.2,1.1-0.3,1.8-0.3
	c0.8,0,1.5,0.1,2.1,0.4c0.6,0.2,1.2,0.6,1.6,1L61.2,62.7z"/>
</svg>
