
<svgid="ewe" xmlns="http://www.w3.org/2000/svg" viewBox="0 0 147.9 43">
<path id="XMLID_214_" d="M8.1,0v1.9H2.4v3.6h4.5v1.8H2.4v3.6h5.7v1.9H0V0H8.1z M13.6,6.2L9.5,0h2.4c0.2,0,0.3,0,0.4,0.1
	c0.1,0,0.1,0.1,0.2,0.2L15.4,5c0-0.1,0.1-0.2,0.1-0.2c0-0.1,0.1-0.1,0.1-0.2l2.7-4.2C18.4,0.1,18.6,0,18.8,0h2.3l-4.1,6.1l4.3,6.7
	h-2.4c-0.2,0-0.3,0-0.4-0.1c-0.1-0.1-0.2-0.2-0.2-0.3l-3-4.9c0,0.1,0,0.1-0.1,0.2c0,0.1-0.1,0.1-0.1,0.2l-2.9,4.5
	c-0.1,0.1-0.1,0.2-0.2,0.3c-0.1,0.1-0.2,0.1-0.4,0.1H9.3L13.6,6.2z M25.4,8.3v4.5H23V0h4.2c0.9,0,1.6,0.1,2.2,0.3
	c0.6,0.2,1.1,0.5,1.6,0.8s0.7,0.8,0.9,1.3c0.2,0.5,0.3,1.1,0.3,1.7c0,0.6-0.1,1.2-0.3,1.7c-0.2,0.5-0.5,1-0.9,1.3
	C30.5,7.5,30,7.8,29.4,8c-0.6,0.2-1.3,0.3-2.2,0.3H25.4z M25.4,6.5h1.8c0.4,0,0.8-0.1,1.1-0.2c0.3-0.1,0.6-0.3,0.8-0.5
	c0.2-0.2,0.4-0.5,0.5-0.7s0.2-0.6,0.2-1c0-0.3-0.1-0.7-0.2-0.9s-0.3-0.5-0.5-0.7c-0.2-0.2-0.5-0.3-0.8-0.4s-0.7-0.2-1.1-0.2h-1.8
	V6.5z M42.5,0v1.9h-5.7v3.6h4.5v1.8h-4.5v3.6h5.7v1.9h-8.1V0H42.5z M47.4,7.8v5H45V0h3.9c0.9,0,1.6,0.1,2.3,0.3
	c0.6,0.2,1.1,0.4,1.5,0.8c0.4,0.3,0.7,0.7,0.9,1.2c0.2,0.5,0.3,1,0.3,1.5c0,0.4-0.1,0.8-0.2,1.2s-0.3,0.7-0.6,1
	c-0.2,0.3-0.5,0.6-0.9,0.8C51.9,7,51.5,7.2,51,7.4c0.3,0.2,0.6,0.4,0.8,0.7l3.2,4.7h-2.1c-0.2,0-0.4,0-0.5-0.1
	c-0.1-0.1-0.3-0.2-0.4-0.4l-2.7-4.1c-0.1-0.2-0.2-0.3-0.3-0.3c-0.1-0.1-0.3-0.1-0.5-0.1H47.4z M47.4,6.1h1.5c0.4,0,0.8-0.1,1.2-0.2
	c0.3-0.1,0.6-0.3,0.8-0.5c0.2-0.2,0.4-0.4,0.5-0.7s0.2-0.6,0.2-0.9c0-0.7-0.2-1.2-0.6-1.5c-0.4-0.3-1.1-0.5-2-0.5h-1.5V6.1z
	 M59.6,12.8h-2.4V0h2.4V12.8z M69.6,8.1c0.1,0.2,0.2,0.4,0.3,0.6c0.1-0.2,0.2-0.4,0.3-0.6c0.1-0.2,0.2-0.4,0.3-0.6l3.8-7.1
	c0-0.1,0.1-0.2,0.1-0.2c0-0.1,0.1-0.1,0.2-0.1c0.1,0,0.1,0,0.2,0c0.1,0,0.2,0,0.3,0h1.8v12.8h-2.1V4.5c0-0.2,0-0.3,0-0.5
	c0-0.2,0-0.4,0-0.6l-3.9,7.3c-0.1,0.2-0.2,0.3-0.3,0.4c-0.1,0.1-0.3,0.1-0.5,0.1h-0.3c-0.2,0-0.4,0-0.5-0.1
	c-0.1-0.1-0.3-0.2-0.3-0.4l-3.9-7.3c0,0.2,0,0.4,0,0.6c0,0.2,0,0.4,0,0.5v8.3h-2.1V0h1.8c0.1,0,0.2,0,0.3,0s0.1,0,0.2,0
	c0.1,0,0.1,0.1,0.2,0.1c0.1,0.1,0.1,0.1,0.2,0.2l3.8,7.1C69.4,7.7,69.5,7.9,69.6,8.1z M87.8,0v1.9h-5.7v3.6h4.5v1.8h-4.5v3.6h5.7
	v1.9h-8.1V0H87.8z M91.8,0c0.1,0,0.1,0,0.2,0.1c0.1,0,0.1,0.1,0.2,0.1c0.1,0.1,0.1,0.1,0.2,0.2L99,9c0-0.2,0-0.4,0-0.6s0-0.4,0-0.6
	V0h2.1v12.8h-1.2c-0.2,0-0.3,0-0.5-0.1c-0.1-0.1-0.2-0.2-0.4-0.3l-6.7-8.6c0,0.2,0,0.4,0,0.6c0,0.2,0,0.4,0,0.5v7.9h-2.1V0h1.3
	C91.6,0,91.7,0,91.8,0z M113.1,0v2h-3.9v10.9h-2.4V2h-3.9V0H113.1z M124.9,12.8h-1.8c-0.2,0-0.4-0.1-0.5-0.2s-0.2-0.2-0.3-0.4
	l-1-2.6H116l-1,2.6c0,0.1-0.1,0.3-0.3,0.4c-0.1,0.1-0.3,0.2-0.5,0.2h-1.9l5-12.8h2.4L124.9,12.8z M116.6,8h4.1l-1.6-4.3
	c-0.1-0.2-0.1-0.4-0.2-0.7c-0.1-0.3-0.2-0.5-0.3-0.8c-0.1,0.3-0.2,0.6-0.2,0.8c-0.1,0.3-0.2,0.5-0.2,0.7L116.6,8z M129,10.9h5.1v2
	h-7.5V0h2.4V10.9z M48,15h2c0.2,0,0.4,0,0.5,0.1c0.1,0.1,0.2,0.2,0.3,0.4l2.2,7.7c0.1,0.2,0.1,0.4,0.1,0.6c0,0.2,0.1,0.5,0.1,0.7
	c0-0.2,0.1-0.5,0.2-0.7s0.1-0.4,0.2-0.6l2.5-7.7c0-0.1,0.1-0.3,0.3-0.4c0.1-0.1,0.3-0.2,0.5-0.2h0.7c0.2,0,0.4,0,0.5,0.1
	c0.1,0.1,0.2,0.2,0.3,0.4l2.5,7.7c0.1,0.4,0.2,0.8,0.3,1.3c0-0.2,0.1-0.5,0.1-0.7c0-0.2,0.1-0.4,0.1-0.6l2.2-7.7
	c0-0.1,0.1-0.3,0.3-0.4c0.1-0.1,0.3-0.2,0.5-0.2h1.9l-4,12.8h-2.2l-2.8-8.8c0-0.1-0.1-0.2-0.1-0.4c0-0.1-0.1-0.3-0.1-0.4
	c0,0.1-0.1,0.3-0.1,0.4c0,0.1-0.1,0.3-0.1,0.4l-2.8,8.8H52L48,15z M76.2,15v1.9h-5.7v3.6H75v1.8h-4.5v3.6h5.7v1.9h-8.1V15H76.2z
	 M78.6,27.8V15h4.4c0.8,0,1.6,0.1,2.2,0.2c0.6,0.2,1.1,0.4,1.5,0.7c0.4,0.3,0.7,0.7,0.8,1.1s0.3,0.9,0.3,1.4c0,0.3,0,0.6-0.1,0.9
	c-0.1,0.3-0.2,0.5-0.4,0.8s-0.4,0.5-0.7,0.7s-0.6,0.4-1,0.5c1.8,0.4,2.6,1.4,2.6,2.9c0,0.5-0.1,1-0.3,1.5c-0.2,0.5-0.5,0.9-0.9,1.2
	c-0.4,0.3-0.9,0.6-1.5,0.8s-1.2,0.3-2,0.3H78.6z M81,20.6h1.9c0.8,0,1.4-0.1,1.8-0.4c0.4-0.3,0.6-0.8,0.6-1.4c0-0.7-0.2-1.1-0.6-1.4
	s-1-0.4-1.8-0.4h-2V20.6z M81,22.2V26h2.4c0.4,0,0.8-0.1,1.1-0.2c0.3-0.1,0.5-0.2,0.7-0.4s0.3-0.4,0.4-0.6c0.1-0.2,0.1-0.5,0.1-0.8
	c0-0.3,0-0.5-0.1-0.8s-0.2-0.4-0.4-0.6s-0.4-0.3-0.7-0.4c-0.3-0.1-0.7-0.1-1.1-0.1H81z M38.4,30v1.9h-5.7v3.6h4.5v1.8h-4.5v3.6h5.7
	v1.9h-8.1V30H38.4z M43.9,36.2L39.8,30h2.4c0.2,0,0.3,0,0.4,0.1c0.1,0,0.1,0.1,0.2,0.2l2.9,4.7c0-0.1,0.1-0.2,0.1-0.2
	c0-0.1,0.1-0.1,0.1-0.2l2.7-4.2c0.1-0.2,0.3-0.3,0.5-0.3h2.3l-4.1,6.1l4.3,6.7h-2.4c-0.2,0-0.3,0-0.4-0.1s-0.2-0.2-0.2-0.3l-3-4.9
	c0,0.1,0,0.1-0.1,0.2c0,0.1-0.1,0.1-0.1,0.2l-2.9,4.5c-0.1,0.1-0.1,0.2-0.2,0.3s-0.2,0.1-0.4,0.1h-2.2L43.9,36.2z M55.7,38.3v4.5
	h-2.4V30h4.2c0.9,0,1.6,0.1,2.2,0.3c0.6,0.2,1.1,0.5,1.6,0.8s0.7,0.8,0.9,1.3c0.2,0.5,0.3,1.1,0.3,1.7c0,0.6-0.1,1.2-0.3,1.7
	c-0.2,0.5-0.5,1-0.9,1.3c-0.4,0.4-0.9,0.7-1.6,0.9c-0.6,0.2-1.3,0.3-2.2,0.3H55.7z M55.7,36.5h1.8c0.4,0,0.8-0.1,1.1-0.2
	s0.6-0.3,0.8-0.5c0.2-0.2,0.4-0.5,0.5-0.7s0.2-0.6,0.2-1c0-0.3-0.1-0.7-0.2-0.9s-0.3-0.5-0.5-0.7c-0.2-0.2-0.5-0.3-0.8-0.4
	s-0.7-0.2-1.1-0.2h-1.8V36.5z M72.8,30v1.9h-5.7v3.6h4.5v1.8h-4.5v3.6h5.7v1.9h-8.1V30H72.8z M77.7,37.8v5h-2.4V30h3.9
	c0.9,0,1.6,0.1,2.3,0.3c0.6,0.2,1.1,0.4,1.5,0.8c0.4,0.3,0.7,0.7,0.9,1.2c0.2,0.5,0.3,1,0.3,1.5c0,0.4-0.1,0.8-0.2,1.2
	s-0.3,0.7-0.6,1c-0.2,0.3-0.5,0.6-0.9,0.8c-0.4,0.2-0.8,0.4-1.2,0.6c0.3,0.2,0.6,0.4,0.8,0.7l3.2,4.7h-2.1c-0.2,0-0.4,0-0.5-0.1
	s-0.3-0.2-0.4-0.4l-2.7-4.1c-0.1-0.2-0.2-0.3-0.3-0.3s-0.3-0.1-0.5-0.1H77.7z M77.7,36.1h1.5c0.4,0,0.8-0.1,1.2-0.2
	c0.3-0.1,0.6-0.3,0.8-0.5c0.2-0.2,0.4-0.4,0.5-0.7c0.1-0.3,0.2-0.6,0.2-0.9c0-0.7-0.2-1.2-0.6-1.5c-0.4-0.3-1.1-0.5-2-0.5h-1.5V36.1
	z M89.9,42.8h-2.4V30h2.4V42.8z M101.2,30v1.9h-5.7v3.6h4.5v1.8h-4.5v3.6h5.7v1.9h-8.1V30H101.2z M105.1,30c0.1,0,0.1,0,0.2,0.1
	c0.1,0,0.1,0.1,0.2,0.1c0.1,0.1,0.1,0.1,0.2,0.2l6.7,8.6c0-0.2,0-0.4,0-0.6s0-0.4,0-0.6V30h2.1v12.8h-1.2c-0.2,0-0.3,0-0.5-0.1
	c-0.1-0.1-0.2-0.2-0.4-0.3l-6.7-8.6c0,0.2,0,0.4,0,0.6c0,0.2,0,0.4,0,0.5v7.9h-2.1V30h1.3C105,30,105.1,30,105.1,30z M126.2,39.8
	c0.1,0,0.2,0,0.3,0.2l0.9,1c-0.5,0.6-1.2,1.1-1.9,1.5s-1.7,0.5-2.7,0.5c-1,0-1.8-0.2-2.6-0.5c-0.8-0.3-1.4-0.8-1.9-1.4
	c-0.5-0.6-1-1.3-1.2-2.1c-0.3-0.8-0.4-1.7-0.4-2.6c0-1,0.2-1.8,0.5-2.7c0.3-0.8,0.8-1.5,1.3-2.1s1.3-1,2.1-1.4
	c0.8-0.3,1.7-0.5,2.7-0.5c1,0,1.8,0.2,2.5,0.5c0.7,0.3,1.3,0.7,1.8,1.2l-0.8,1.1c0,0.1-0.1,0.1-0.2,0.2c-0.1,0.1-0.2,0.1-0.3,0.1
	c-0.1,0-0.3-0.1-0.4-0.2c-0.1-0.1-0.3-0.2-0.5-0.3c-0.2-0.1-0.5-0.2-0.8-0.3c-0.3-0.1-0.8-0.2-1.3-0.2c-0.6,0-1.2,0.1-1.7,0.3
	c-0.5,0.2-0.9,0.5-1.3,0.9c-0.4,0.4-0.6,0.9-0.9,1.4c-0.2,0.6-0.3,1.2-0.3,1.9c0,0.7,0.1,1.4,0.3,1.9c0.2,0.6,0.5,1,0.8,1.4
	c0.3,0.4,0.8,0.7,1.2,0.9s1,0.3,1.5,0.3c0.3,0,0.6,0,0.9-0.1c0.3,0,0.5-0.1,0.7-0.2c0.2-0.1,0.4-0.2,0.6-0.3s0.4-0.3,0.6-0.4
	c0.1-0.1,0.1-0.1,0.2-0.1S126.2,39.8,126.2,39.8z M137.8,30v1.9h-5.7v3.6h4.5v1.8h-4.5v3.6h5.7v1.9h-8.1V30H137.8z M147.1,32.3
	c-0.1,0.1-0.1,0.2-0.2,0.3c-0.1,0.1-0.2,0.1-0.3,0.1s-0.3,0-0.4-0.1c-0.1-0.1-0.3-0.2-0.5-0.3s-0.4-0.2-0.7-0.3s-0.6-0.1-1-0.1
	c-0.3,0-0.6,0-0.9,0.1s-0.5,0.2-0.6,0.3c-0.2,0.1-0.3,0.3-0.4,0.5s-0.1,0.4-0.1,0.7c0,0.3,0.1,0.6,0.3,0.8s0.4,0.4,0.7,0.5
	c0.3,0.1,0.6,0.3,1,0.4c0.4,0.1,0.7,0.2,1.1,0.4c0.4,0.1,0.7,0.3,1.1,0.4c0.4,0.2,0.7,0.4,1,0.6c0.3,0.3,0.5,0.6,0.7,0.9
	s0.3,0.8,0.3,1.4c0,0.6-0.1,1.1-0.3,1.6s-0.5,0.9-0.9,1.3c-0.4,0.4-0.8,0.7-1.4,0.9c-0.6,0.2-1.2,0.3-1.9,0.3c-0.4,0-0.8,0-1.2-0.1
	s-0.8-0.2-1.1-0.3c-0.4-0.1-0.7-0.3-1-0.5c-0.3-0.2-0.6-0.4-0.8-0.7l0.7-1.1c0.1-0.1,0.1-0.2,0.2-0.2c0.1-0.1,0.2-0.1,0.3-0.1
	c0.1,0,0.3,0.1,0.5,0.2c0.2,0.1,0.4,0.3,0.6,0.4c0.2,0.1,0.5,0.3,0.8,0.4c0.3,0.1,0.7,0.2,1.1,0.2c0.7,0,1.2-0.2,1.6-0.5
	c0.4-0.3,0.6-0.8,0.6-1.4c0-0.3-0.1-0.6-0.3-0.8c-0.2-0.2-0.4-0.4-0.7-0.5s-0.6-0.3-1-0.4c-0.4-0.1-0.7-0.2-1.1-0.3
	s-0.7-0.3-1.1-0.4c-0.4-0.2-0.7-0.4-1-0.6c-0.3-0.3-0.5-0.6-0.7-1c-0.2-0.4-0.3-0.9-0.3-1.5c0-0.5,0.1-0.9,0.3-1.4s0.5-0.8,0.8-1.2
	c0.4-0.3,0.8-0.6,1.3-0.8c0.5-0.2,1.1-0.3,1.8-0.3c0.8,0,1.5,0.1,2.1,0.4c0.6,0.2,1.2,0.6,1.6,1L147.1,32.3z"/>
</svg>
