<?xml version="1.0" encoding="utf-8"?>
<!-- Generator: Adobe Illustrator 19.0.0, SVG Export Plug-In . SVG Version: 6.00 Build 0)  -->
<svg version="1.1" id="hire-me" xmlns="http://www.w3.org/2000/svg" xmlns:xlink="http://www.w3.org/1999/xlink" x="0px" y="0px"
	 viewBox="284.7 -1000.8 1047.4 2613.8" style="enable-background:new 284.7 -1000.8 1047.4 2613.8;" xml:space="preserve">
<style type="text/css">
	.st0{fill:none;stroke:#C6C5C5;stroke-width:13;stroke-miterlimit:10;stroke-dasharray:10,10,30;}
	.st1{fill:#DEDEDF;}
	.st2{fill:#5A5C5C;}
	.st3{fill:#050707;}
	.st4{font-family:'Lato-Bold';}
	.st5{font-size:122.9839px;}
	.st6{fill:#F4F6F6;}
	.st7{fill:none;}
</style>
<line id="line" class="st0" x1="284.7" y1="-551.6" x2="1335" y2="-551.6"/>
<polygon class="st1" points="1021,-1000.8 739.7,-1000.8 335.5,-1000.8 335.5,-911.5 536.4,-710.6 1140.6,-710.6 1140.6,-710.6 
	1161.7,-710.6 1238.3,-787.3 1238.3,-1000.8 "/>
<g id="elip">
	<path class="st2" d="M1160-839c0,8.6,7,15.5,15.5,15.5s15.5-6.9,15.5-15.5s-6.9-15.5-15.5-15.5S1160-847.6,1160-839z"/>
	<path class="st2" d="M1160-888c0,8.6,7,15.5,15.5,15.5s15.5-6.9,15.5-15.5s-6.9-15.5-15.5-15.5S1160-896.6,1160-888z"/>
	<path class="st2" d="M1160-937c0,8.6,7,15.5,15.5,15.5s15.5-7,15.5-15.5c0-8.6-6.9-15.5-15.5-15.5S1160-945.6,1160-937z"/>
</g>
<g>
	<text transform="matrix(1 0 0 1 596.5796 -853.377)" class="st3 st4 st5">HIRE ME</text>
</g>
<g id="github">
	<ellipse class="st6" cx="786.9" cy="1250.4" rx="417.3" ry="328.4"/>
	<g>
		<path class="st2" d="M607.3,1497.9c3.6,0,6.7-0.3,9.3-1s5.2-1.5,7.6-2.7v-15.5h-10.7c-1,0-1.8-0.3-2.4-0.9
			c-0.6-0.6-0.9-1.3-0.9-2.1v-9h28.4v34.5c-2.2,1.6-4.4,2.9-6.8,4.1c-2.3,1.2-4.8,2.1-7.5,2.9c-2.7,0.7-5.5,1.3-8.5,1.7
			c-3,0.4-6.3,0.6-9.8,0.6c-6.2,0-11.9-1.1-17.2-3.2c-5.2-2.2-9.8-5.2-13.6-9c-3.8-3.8-6.8-8.5-8.9-13.8c-2.1-5.3-3.2-11.2-3.2-17.5
			c0-6.4,1-12.3,3.1-17.6c2.1-5.3,5-9.9,8.9-13.8c3.8-3.9,8.5-6.8,13.9-9c5.5-2.1,11.6-3.2,18.4-3.2c7,0,13,1,18.1,3.1
			c5.1,2.1,9.4,4.7,12.9,8.1l-4.6,7.2c-0.9,1.5-2.1,2.2-3.6,2.2c-0.9,0-1.9-0.3-2.9-0.9c-1.3-0.7-2.5-1.5-3.9-2.2
			c-1.3-0.7-2.8-1.4-4.4-1.9c-1.6-0.5-3.4-1-5.4-1.4s-4.3-0.5-6.9-0.5c-4.2,0-8,0.7-11.4,2.1c-3.4,1.4-6.3,3.4-8.7,6.1
			c-2.4,2.6-4.2,5.8-5.5,9.5s-1.9,7.8-1.9,12.4c0,4.9,0.7,9.3,2.1,13.1c1.4,3.8,3.3,7.1,5.8,9.7s5.4,4.6,8.8,6
			C599.5,1497.2,603.2,1497.9,607.3,1497.9z"/>
		<path class="st2" d="M673.6,1509.5h-15.9v-85.3h15.9V1509.5z"/>
		<path class="st2" d="M755.3,1424.3v13h-25.7v72.2h-15.9v-72.2H688v-13H755.3z"/>
		<path class="st2" d="M839.7,1509.5h-16v-37.3h-40v37.3h-16v-85.3h16v36.7h40v-36.7h16V1509.5z"/>
		<path class="st2" d="M893.6,1496.7c3.1,0,5.8-0.5,8.2-1.5s4.5-2.5,6.1-4.3c1.7-1.8,2.9-4.1,3.8-6.7c0.9-2.6,1.3-5.6,1.3-8.8v-51.1
			h16v51.1c0,5.1-0.8,9.8-2.4,14.1c-1.6,4.3-4,8-7,11.1c-3.1,3.1-6.8,5.6-11.1,7.3c-4.4,1.7-9.3,2.6-14.7,2.6
			c-5.5,0-10.4-0.9-14.7-2.6c-4.4-1.8-8.1-4.2-11.1-7.3c-3-3.1-5.4-6.8-7-11.1c-1.6-4.3-2.4-9-2.4-14.1v-51.1h15.9v51
			c0,3.3,0.4,6.2,1.3,8.8s2.2,4.9,3.8,6.8s3.7,3.3,6.1,4.3C887.8,1496.2,890.5,1496.7,893.6,1496.7z"/>
		<path class="st2" d="M947.5,1509.5v-85.3h29.4c5.6,0,10.4,0.5,14.3,1.6c4,1.1,7.2,2.6,9.7,4.5c2.5,2,4.4,4.3,5.6,7.1
			c1.2,2.8,1.8,5.9,1.8,9.4c0,2-0.3,3.9-0.9,5.8c-0.6,1.8-1.5,3.5-2.7,5.1s-2.8,3-4.7,4.3s-4.2,2.4-6.8,3.3c11.7,2.6,17.6,9,17.6,19
			c0,3.6-0.7,7-2.1,10c-1.4,3.1-3.4,5.7-6,7.9c-2.6,2.2-5.9,4-9.7,5.2c-3.9,1.3-8.3,1.9-13.2,1.9L947.5,1509.5L947.5,1509.5z
			 M963.3,1461.2H976c5.4,0,9.5-1,12.3-2.9s4.2-5.1,4.2-9.4c0-4.4-1.3-7.6-3.8-9.5s-6.4-2.8-11.8-2.8h-13.6L963.3,1461.2
			L963.3,1461.2z M963.3,1472.2v25h16.1c2.9,0,5.4-0.4,7.4-1.1s3.6-1.6,4.8-2.8c1.2-1.2,2.1-2.6,2.6-4.1c0.5-1.6,0.8-3.2,0.8-5
			s-0.3-3.5-0.9-5c-0.6-1.5-1.5-2.7-2.8-3.8c-1.3-1-2.9-1.8-4.8-2.4c-2-0.5-4.3-0.8-7.1-0.8L963.3,1472.2L963.3,1472.2z"/>
	</g>
	<path class="st2" d="M786.9,952.2c-107.8,0-195.3,87.4-195.3,195.3c0,86.3,55.9,159.5,133.6,185.4c9.8,1.8,13.3-4.2,13.3-9.4
		c0-4.7-0.2-17-0.2-33.2c-54.4,11.7-65.8-26.2-65.8-26.2c-8.9-22.5-21.7-28.5-21.7-28.5c-17.7-12.1,1.4-11.9,1.4-11.9
		c19.6,1.4,29.9,20.1,29.9,20.1c17.4,29.9,45.7,21.2,56.9,16.2c1.7-12.6,6.8-21.2,12.4-26.1c-43.3-5-88.9-21.7-88.9-96.6
		c0-21.3,7.6-38.8,20.1-52.4c-2-4.9-8.7-24.8,2-51.7c0,0,16.4-5.3,53.7,20c15.5-4.3,32.3-6.5,48.9-6.6c16.6,0.1,33.3,2.3,48.9,6.6
		c37.3-25.3,53.7-20,53.7-20c10.6,26.9,3.9,46.7,1.9,51.7c12.5,13.7,20.1,31.1,20.1,52.4c0,75-45.7,91.5-89.2,96.4
		c7,6,13.3,17.9,13.3,36.2c0,26.1-0.2,47.2-0.2,53.6c0,5.2,3.4,11.3,13.4,9.4c77.5-25.9,133.4-99,133.4-185.4
		C982.3,1039.6,894.8,952.2,786.9,952.2z"/>
</g>
<g id="codepen">
	<ellipse class="st6" cx="786.9" cy="528.5" rx="417.3" ry="340.7"/>
	<g>
		<path class="st2" d="M569.8,740.4c0.9,0,1.6,0.3,2.2,1l6.3,6.8c-3.5,4.3-7.7,7.6-12.8,9.9c-5.1,2.3-11.1,3.4-18.2,3.4
			c-6.3,0-12-1.1-17.1-3.2c-5.1-2.2-9.4-5.2-12.9-9c-3.6-3.9-6.3-8.5-8.2-13.8s-2.9-11.2-2.9-17.5c0-6.4,1.1-12.3,3.2-17.6
			s5.1-9.9,9-13.8c3.9-3.9,8.5-6.9,13.8-9c5.4-2.1,11.3-3.2,17.8-3.2c6.3,0,11.9,1,16.6,3c4.7,2,8.8,4.7,12.2,8.1l-5.3,7.4
			c-0.3,0.5-0.7,0.9-1.2,1.2c-0.5,0.4-1.2,0.5-2,0.5c-0.9,0-1.8-0.4-2.8-1.1c-0.9-0.7-2.1-1.5-3.6-2.3s-3.3-1.6-5.5-2.3
			s-5-1.1-8.5-1.1c-4,0-7.7,0.7-11.1,2.1c-3.4,1.4-6.3,3.4-8.7,6c-2.4,2.6-4.3,5.8-5.7,9.5c-1.4,3.7-2,7.9-2,12.5
			c0,4.8,0.7,9.1,2,12.8c1.4,3.7,3.2,6.9,5.5,9.4c2.3,2.6,5.1,4.5,8.2,5.9c3.1,1.4,6.5,2,10.1,2c2.2,0,4.1-0.1,5.9-0.4
			c1.7-0.2,3.4-0.6,4.8-1.1c1.5-0.5,2.9-1.2,4.2-2c1.3-0.8,2.6-1.8,3.9-3c0.4-0.4,0.8-0.6,1.2-0.9S569.3,740.4,569.8,740.4z"/>
		<path class="st2" d="M674.4,717.9c0,6.3-1,12-3.1,17.4c-2.1,5.3-5,9.9-8.8,13.8c-3.8,3.9-8.3,6.9-13.6,9.1
			c-5.3,2.2-11.2,3.3-17.6,3.3c-6.4,0-12.3-1.1-17.7-3.3c-5.3-2.2-9.9-5.2-13.7-9.1c-3.8-3.9-6.7-8.5-8.8-13.8
			c-2.1-5.3-3.1-11.1-3.1-17.4s1-12,3.1-17.4c2.1-5.3,5-9.9,8.8-13.8c3.8-3.9,8.4-6.9,13.7-9.1c5.3-2.2,11.2-3.3,17.7-3.3
			c6.4,0,12.3,1.1,17.6,3.3s9.9,5.2,13.6,9.1c3.8,3.9,6.7,8.5,8.8,13.8C673.4,705.9,674.4,711.6,674.4,717.9z M658.1,717.9
			c0-4.7-0.6-8.9-1.9-12.6c-1.2-3.7-3-6.9-5.3-9.5s-5.1-4.6-8.5-6c-3.3-1.4-7.1-2.1-11.2-2.1c-4.2,0-7.9,0.7-11.3,2.1
			c-3.3,1.4-6.2,3.4-8.5,6s-4.1,5.8-5.4,9.5s-1.9,7.9-1.9,12.6s0.6,8.9,1.9,12.6c1.3,3.7,3.1,6.9,5.4,9.4c2.3,2.6,5.2,4.6,8.5,5.9
			s7.1,2.1,11.3,2.1s7.9-0.7,11.2-2.1c3.3-1.4,6.1-3.4,8.5-5.9c2.3-2.6,4.1-5.7,5.3-9.4C657.5,726.8,658.1,722.6,658.1,717.9z"/>
		<path class="st2" d="M765,717.9c0,6.3-1,12-3.1,17.2c-2.1,5.2-5,9.7-8.8,13.5s-8.3,6.7-13.6,8.8s-11.2,3.1-17.6,3.1h-32.6v-85.3
			h32.6c6.4,0,12.3,1.1,17.6,3.2c5.3,2.1,9.8,5,13.6,8.8s6.7,8.2,8.8,13.5C764,705.9,765,711.6,765,717.9z M748.8,717.9
			c0-4.7-0.6-8.9-1.9-12.6c-1.3-3.7-3-6.9-5.4-9.4c-2.3-2.6-5.1-4.6-8.5-5.9c-3.3-1.4-7.1-2.1-11.2-2.1h-16.6v60h16.6
			c4.2,0,7.9-0.7,11.2-2.1c3.3-1.4,6.1-3.4,8.5-5.9c2.3-2.6,4.1-5.7,5.4-9.4C748.2,726.8,748.8,722.6,748.8,717.9z"/>
		<path class="st2" d="M833.6,675.3v12.6h-37.8v23.7h29.8v12.2h-29.8v24.1h37.8v12.7h-53.8v-85.3H833.6L833.6,675.3z"/>
		<path class="st2" d="M866.1,730.5v30h-15.9v-85.3H878c5.7,0,10.6,0.7,14.8,2s7.6,3.2,10.3,5.6c2.7,2.4,4.7,5.3,6,8.6s1.9,7,1.9,11
			c0,4.1-0.7,7.9-2.1,11.4c-1.4,3.4-3.4,6.4-6.2,8.9s-6.2,4.4-10.3,5.8c-4.1,1.4-9,2.1-14.5,2.1L866.1,730.5L866.1,730.5z
			 M866.1,718.1H878c2.9,0,5.4-0.4,7.6-1.1c2.2-0.7,4-1.8,5.4-3.1c1.4-1.4,2.5-3,3.2-5c0.7-1.9,1.1-4.1,1.1-6.5
			c0-2.3-0.4-4.3-1.1-6.2c-0.7-1.8-1.8-3.4-3.2-4.7s-3.2-2.3-5.4-3s-4.7-1-7.6-1h-11.9V718.1z"/>
		<path class="st2" d="M979.6,675.3v12.6h-37.8v23.7h29.8v12.2h-29.8v24.1h37.8v12.7h-53.8v-85.3H979.6L979.6,675.3z"/>
		<path class="st2" d="M1005.8,675.3c0.5,0.1,0.9,0.2,1.3,0.4c0.4,0.2,0.7,0.4,1.1,0.8s0.7,0.8,1.2,1.3l44.8,57
			c-0.2-1.4-0.3-2.7-0.3-4c-0.1-1.3-0.1-2.5-0.1-3.7v-51.8h14v85.3h-8.2c-1.3,0-2.3-0.2-3.1-0.6c-0.8-0.4-1.6-1.1-2.4-2.1
			l-44.6-56.8c0.1,1.3,0.2,2.5,0.3,3.7s0.1,2.4,0.1,3.4v52.4h-14v-85.3h8.3C1004.7,675.3,1005.3,675.3,1005.8,675.3z"/>
	</g>
	<path class="st2" d="M981,351.9c0-0.2-0.1-0.5-0.2-0.7c0-0.4-0.1-0.9-0.2-1.4c-0.1-0.3-0.2-0.5-0.3-0.8c-0.1-0.4-0.3-0.8-0.4-1.2
		c-0.1-0.3-0.3-0.5-0.4-0.8c-0.2-0.4-0.3-0.7-0.5-1.1c-0.2-0.2-0.3-0.5-0.4-0.8c-0.3-0.3-0.5-0.7-0.8-1c-0.2-0.2-0.3-0.5-0.6-0.7
		c-0.2-0.3-0.5-0.6-0.8-0.9c-0.2-0.2-0.4-0.5-0.7-0.7c-0.2-0.3-0.6-0.5-0.9-0.8c-0.2-0.2-0.5-0.4-0.8-0.6c-0.1-0.1-0.2-0.2-0.2-0.2
		L796.1,221.8c-5.5-3.7-12.9-3.7-18.5,0L600,340.2c0,0.1-0.2,0.2-0.3,0.2c-0.2,0.2-0.4,0.4-0.7,0.6c-0.3,0.3-0.6,0.5-1,0.8
		c-0.2,0.2-0.4,0.4-0.6,0.7c-0.3,0.3-0.5,0.6-0.9,0.9c-0.2,0.2-0.3,0.5-0.5,0.7c-0.2,0.3-0.5,0.7-0.7,1s-0.2,0.5-0.4,0.8
		c-0.2,0.4-0.4,0.8-0.6,1.1c-0.1,0.3-0.3,0.5-0.3,0.8c-0.2,0.4-0.4,0.8-0.5,1.2c0,0.3-0.2,0.5-0.2,0.8c-0.2,0.5-0.2,0.9-0.3,1.4
		c0,0.3-0.1,0.5-0.1,0.7c-0.1,0.7-0.1,1.4-0.1,2.2v118.4c0,0.8,0,1.5,0.1,2.2c0,0.2,0.1,0.4,0.1,0.7c0.2,0.5,0.2,0.9,0.3,1.4
		c0,0.3,0.2,0.5,0.2,0.8c0.1,0.4,0.3,0.8,0.5,1.2c0,0.3,0.2,0.5,0.3,0.8c0.2,0.4,0.4,0.7,0.6,1.1c0.2,0.3,0.3,0.5,0.4,0.8
		c0.2,0.3,0.5,0.7,0.7,1s0.4,0.5,0.5,0.8c0.3,0.3,0.6,0.6,0.9,0.9c0.2,0.2,0.4,0.5,0.6,0.7c0.4,0.3,0.7,0.5,1,0.8
		c0.3,0.2,0.5,0.4,0.7,0.6c0.2,0.1,0.3,0.1,0.3,0.2l177.6,118.4c2.8,1.9,6.1,2.8,9.3,2.8c3.2,0,6.4-1,9.2-2.8l177.8-118.4
		c0.1-0.1,0.1-0.1,0.2-0.2c0.3-0.2,0.5-0.4,0.8-0.6c0.3-0.3,0.7-0.5,0.9-0.8c0.3-0.2,0.5-0.4,0.7-0.7s0.5-0.6,0.8-0.9
		c0.3-0.3,0.4-0.5,0.6-0.8c0.2-0.3,0.5-0.6,0.8-1c0.1-0.3,0.3-0.5,0.4-0.8c0.3-0.4,0.4-0.7,0.5-1.1c0.2-0.3,0.3-0.5,0.4-0.8
		c0.1-0.4,0.3-0.8,0.4-1.2c0.1-0.2,0.2-0.5,0.3-0.8c0.1-0.5,0.1-0.9,0.2-1.4c0.1-0.3,0.2-0.5,0.2-0.7c0.2-0.8,0.2-1.5,0.2-2.2V354.1
		C981.3,353.3,981.2,352.6,981,351.9z M803.6,266.8l130.9,87.3L876,393.2l-72.4-48.5V266.8z M770.2,266.8v77.9l-72.4,48.5
		l-58.5-39.1L770.2,266.8z M626,385.3l41.8,28L626,441.2V385.3z M770.2,559.7l-130.9-87.2l58.5-39.1l72.4,48.4V559.7z M786.9,452.8
		l-59.1-39.5l59.1-39.5l59,39.5L786.9,452.8z M803.6,559.7v-77.9l72.4-48.4l58.5,39.1L803.6,559.7z M947.8,441.2L906,413.3l41.8-28
		V441.2z"/>
</g>
<g id="behance">
	<g>
		<path class="st2" d="M510.2,7.9v-85.3h29.4c5.6,0,10.4,0.5,14.3,1.6s7.2,2.6,9.7,4.5c2.5,2,4.4,4.3,5.6,7.1
			c1.2,2.8,1.8,5.9,1.8,9.4c0,2-0.3,3.9-0.9,5.8c-0.6,1.8-1.5,3.5-2.7,5.1s-2.8,3-4.7,4.3c-1.9,1.3-4.2,2.4-6.8,3.3
			c11.7,2.6,17.6,9,17.6,19c0,3.6-0.7,7-2.1,10c-1.4,3.1-3.4,5.7-6,7.9c-2.6,2.2-5.9,4-9.7,5.2c-3.9,1.3-8.3,1.9-13.2,1.9L510.2,7.9
			L510.2,7.9z M526-40.5h12.7c5.4,0,9.5-1,12.3-2.9c2.8-2,4.2-5.1,4.2-9.4c0-4.4-1.3-7.6-3.8-9.5s-6.4-2.8-11.8-2.8H526V-40.5
			L526-40.5z M526-29.5v25h16.1c2.9,0,5.4-0.4,7.4-1.1s3.6-1.7,4.8-2.8c1.2-1.2,2.1-2.6,2.6-4.1c0.5-1.6,0.8-3.2,0.8-5
			s-0.3-3.5-0.9-5c-0.6-1.5-1.5-2.7-2.8-3.8c-1.3-1-2.9-1.8-4.8-2.4c-2-0.6-4.3-0.8-7.1-0.8L526-29.5L526-29.5z"/>
		<path class="st2" d="M643.2-77.4v12.6h-37.8v23.7h29.8v12.2h-29.8v24.1h37.8V7.9h-53.8v-85.3H643.2z"/>
		<path class="st2" d="M731.2,7.9h-16v-37.3h-40V7.9h-16v-85.3h16v36.7h40v-36.7h16V7.9z"/>
		<path class="st2" d="M825.8,7.9h-12.3c-1.4,0-2.5-0.3-3.4-1s-1.5-1.5-1.9-2.6l-6.4-17.4h-35.3l-6.4,17.4c-0.3,0.9-0.9,1.7-1.9,2.5
			c-0.9,0.7-2.1,1.1-3.4,1.1h-12.3L776-77.4h16.2L825.8,7.9z M770.6-24.3h27.2l-10.4-28.4c-0.5-1.3-1-2.7-1.6-4.5
			c-0.6-1.7-1.1-3.6-1.7-5.6c-0.6,2-1.1,3.9-1.6,5.6c-0.5,1.7-1.1,3.2-1.6,4.5L770.6-24.3z"/>
		<path class="st2" d="M847-77.3c0.5,0.1,0.9,0.2,1.3,0.4c0.4,0.2,0.7,0.4,1.1,0.8c0.4,0.4,0.7,0.8,1.2,1.3l44.8,57
			c-0.2-1.4-0.3-2.7-0.3-4c-0.1-1.3-0.1-2.5-0.1-3.7v-51.9h14V7.9h-8.2c-1.3,0-2.3-0.2-3.1-0.6s-1.6-1.1-2.4-2.1l-44.6-56.8
			c0.1,1.3,0.2,2.5,0.3,3.7s0.1,2.4,0.1,3.4V7.9h-14v-85.3h8.3C845.9-77.4,846.5-77.4,847-77.3z"/>
		<path class="st2" d="M987.1-12.2c0.9,0,1.6,0.3,2.2,1l6.3,6.8c-3.5,4.3-7.7,7.6-12.8,9.8c-5.1,2.3-11.1,3.4-18.2,3.4
			c-6.3,0-12-1.1-17.1-3.2c-5.1-2.2-9.4-5.2-12.9-9c-3.6-3.9-6.3-8.5-8.2-13.8s-2.9-11.2-2.9-17.5c0-6.4,1.1-12.3,3.2-17.6
			s5.1-9.9,9-13.8c3.9-3.9,8.5-6.9,13.8-9c5.4-2.1,11.3-3.2,17.8-3.2c6.3,0,11.9,1,16.6,3c4.7,2,8.8,4.7,12.2,8.1l-5.3,7.4
			c-0.3,0.5-0.7,0.9-1.2,1.2s-1.2,0.5-2,0.5c-0.9,0-1.8-0.4-2.8-1.1s-2.1-1.5-3.6-2.3s-3.3-1.6-5.5-2.3s-5-1.1-8.5-1.1
			c-4,0-7.7,0.7-11.1,2.1c-3.4,1.4-6.3,3.4-8.7,6s-4.3,5.8-5.7,9.5s-2,7.9-2,12.5c0,4.8,0.7,9.1,2,12.8c1.4,3.7,3.2,6.9,5.5,9.4
			c2.3,2.6,5.1,4.5,8.2,5.9c3.1,1.4,6.5,2,10.1,2c2.2,0,4.1-0.1,5.9-0.4c1.7-0.2,3.4-0.6,4.8-1.1c1.5-0.5,2.9-1.2,4.2-2
			s2.6-1.8,3.9-3c0.4-0.4,0.8-0.6,1.2-0.9C986.1-12.1,986.6-12.2,987.1-12.2z"/>
		<path class="st2" d="M1063.7-77.4v12.6h-37.8v23.7h29.8v12.2h-29.8v24.1h37.8V7.9h-53.8v-85.3H1063.7z"/>
	</g>
	<g>
		<path class="st2" d="M658.3-146.1h61.5c0,0,67.1,2.3,67.1-67.2c0,0,2.9-56.6-39.6-56.6c0,0,32.3-2.6,32.3-43.3
			s-26.4-60.6-59.7-60.6h-61.5h-1.8H610v227.6h46.6L658.3-146.1L658.3-146.1z M658.3-333.2h53.6h8c0,0,14.9,0,14.9,23.7
			s-8.8,27.1-18.7,27.1h-57.7L658.3-333.2L658.3-333.2z M658.3-247.3h61.5c0,0,22.2-0.3,22.2,31.3c0,26.6-16.6,29.3-25.3,29.6
			c-1.6,0-3,0-3.9,0h-54.5V-247.3L658.3-247.3z"/>
		<path class="st2" d="M885.6-323.1c-86,0-85.9,88.7-85.9,88.7s-5.9,88.2,85.9,88.2c0,0,76.5,4.5,76.5-61.4h-39.4
			c0,0,1.3,24.8-35.9,24.8c0,0-39.4,2.7-39.4-40.2h115.9C963.4-222.9,976-323.1,885.6-323.1 M847.1-253.7c0,0,4.8-35.6,39.4-35.6
			c34.6,0,34.1,35.6,34.1,35.6L847.1-253.7L847.1-253.7z"/>
		<rect x="850.2" y="-361" class="st2" width="75.9" height="25.3"/>
	</g>
	<ellipse class="st7" cx="786.9" cy="-167.4" rx="417.3" ry="298.6"/>
</g>
</svg>
