<svg id="frame" xmlns="http://www.w3.org/2000/svg" viewBox="0 0 648 648">
<g id="logo-group">
	<polygon class="elem" fill="#DDDEDF" points="129.135,617.486 129.135,617.49 129.135,597.32 129.135,599.76 129.135,579.592 129.135,579.596 
		118.524,568.984 118.524,628.098 	"/>
	<path fill="#2D2C2C" d="M184.508,585.275l-6.118-6.463c-0.294-0.311-0.789-0.324-1.1-0.026l-13.237,12.545l-1.247-1.179
		c-0.31-0.295-0.808-0.283-1.1,0.025l-6.124,6.467c-0.298,0.31-0.287,0.803,0.028,1.099l0.842,0.796l-5.084,4.824v-9.644l1.99,1.888
		c0.313,0.298,0.806,0.282,1.098-0.026l6.129-6.467c0.296-0.311,0.281-0.8-0.028-1.099l-9.743-9.229
		c-0.312-0.298-0.802-0.283-1.096,0.026l-6.12,6.463c-0.144,0.15-0.209,0.344-0.209,0.533v25.489l0,0
		c0,0.183,0.066,0.364,0.202,0.506l6.127,6.468c0.294,0.31,0.785,0.323,1.096,0.027l13.241-12.551l13.237,12.551
		c0.312,0.296,0.806,0.281,1.1-0.027l6.127-6.468c0.136-0.14,0.196-0.323,0.202-0.506l0,0V585.81
		C184.72,585.619,184.653,585.429,184.508,585.275z M176.742,603.362l-5.09-4.823l5.09-4.82V603.362z"/>
</g>
<g id="hire-me">
	<polygon fill="#DDDEDF" points="487.778,16.146 450.749,16.146 397.541,16.146 397.541,27.906 423.982,54.347 503.526,54.347 
		503.524,54.347 506.299,54.347 516.386,44.256 516.386,16.146 	"/>
	<circle fill="#5A5C5C" cx="508.119" cy="37.438" r="2.045"/>
	<circle fill="#5A5C5C" cx="508.119" cy="30.993" r="2.045"/>
	<circle fill="#5A5C5C" cx="508.119" cy="24.546" r="2.045"/>
</g>
<g id="arrows">
	<polygon fill="#FFFFFF" points="516.388,83.664 476.527,75.339 476.527,65.75 516.388,74.077 	"/>
	<polygon fill="#FFFFFF" points="476.527,75.339 436.665,83.664 436.665,74.077 476.527,65.75 	"/>
	<polygon fill="#FFFFFF" points="516.388,101.576 476.527,93.251 476.527,83.664 516.388,91.989 	"/>
	<polygon fill="#FFFFFF" points="476.527,93.251 436.665,101.576 436.665,91.989 476.527,83.664 	"/>
	<polygon fill="#FFFFFF" points="516.388,119.488 476.527,111.163 476.527,101.576 516.388,109.901 	"/>
	<polygon fill="#FFFFFF" points="476.527,111.163 436.665,119.488 436.665,109.901 476.527,101.576 	"/>
</g>
<g id="profile">
	<polygon fill="#DDDEDF" points="505.942,563.406 440.306,563.406 440.306,623.588 450.395,633.676 453.169,633.676 453.167,633.68 
		506.301,633.68 516.388,623.588 516.388,573.854 	"/>
	<circle fill="#5A5C5C" cx="448.574" cy="584.698" r="2.045"/>
	<circle fill="#5A5C5C" cx="448.574" cy="578.254" r="2.045"/>
	<circle fill="#5A5C5C" cx="448.574" cy="571.808" r="2.045"/>
</g>
<g id="resources">
	<polygon fill="#DDDEDF" points="423.248,563.406 353.84,563.406 353.84,623.588 363.929,633.676 366.703,633.676 366.702,633.68 
		423.606,633.68 433.695,623.588 433.695,573.854 	"/>
	<circle fill="#5A5C5C" cx="362.108" cy="584.698" r="2.045"/>
	<circle fill="#5A5C5C" cx="362.108" cy="578.254" r="2.045"/>
	<circle fill="#5A5C5C" cx="362.108" cy="571.808" r="2.045"/>
</g>
<g id="portfolio">
	<polygon fill="#DDDEDF" points="336.472,563.406 270.836,563.406 270.836,623.588 280.925,633.676 283.7,633.676 283.698,633.68 
		336.83,633.68 346.919,623.588 346.919,573.854 	"/>
	<circle fill="#5A5C5C" cx="279.104" cy="584.698" r="2.045"/>
	<circle fill="#5A5C5C" cx="279.104" cy="578.254" r="2.045"/>
	<circle fill="#5A5C5C" cx="279.104" cy="571.808" r="2.045"/>
</g>
</svg>
