<?xml version="1.0" encoding="utf-8"?>
<!-- Generator: Adobe Illustrator 16.0.0, SVG Export Plug-In . SVG Version: 6.00 Build 0)  -->
<!DOCTYPE svg PUBLIC "-//W3C//DTD SVG 1.1//EN" "http://www.w3.org/Graphics/SVG/1.1/DTD/svg11.dtd">
<svg version="1.1" id="logo-group" xmlns="http://www.w3.org/2000/svg" xmlns:xlink="http://www.w3.org/1999/xlink" x="0px" y="0px"
	 width="648px" height="648px" viewBox="0 0 648 648" enable-background="new 0 0 648 648" xml:space="preserve">
<g>
	<path fill="#DDDEDF" d="M0,509.457V138.543V34.672v578.655V509.457z"/>
	<path id="logo" fill="#2D2C2C" d="M645.915,194.145l-59.879-63.266c-2.888-3.054-7.725-3.171-10.778-0.254L445.682,253.426
		l-12.196-11.541c-3.044-2.888-7.919-2.77-10.777,0.235l-59.947,63.305c-2.918,3.044-2.81,7.871,0.265,10.768l8.252,7.792
		l-49.768,47.222v-94.414l19.471,18.491c3.063,2.917,7.899,2.75,10.759-0.254l59.996-63.306c2.896-3.054,2.751-7.831-0.274-10.768
		l-95.373-90.333c-3.055-2.917-7.851-2.771-10.729,0.254l-59.909,63.266c-1.409,1.458-2.046,3.367-2.046,5.208v249.511l0,0
		c0,1.801,0.646,3.562,1.978,4.952l59.977,63.325c2.878,3.034,7.684,3.151,10.729,0.254l129.615-122.86l129.576,122.86
		c3.055,2.897,7.891,2.751,10.777-0.254l59.978-63.325c1.321-1.369,1.909-3.151,1.968-4.952l0,0v-249.49
		C648,197.512,647.324,195.642,645.915,194.145z M569.894,371.197l-49.824-47.212l49.824-47.183V371.197z"/>
</g>
</svg>
