<svg id="logo-group" xmlns="http://www.w3.org/2000/svg" viewBox="0 0 648 648">
<path fill="#DDDEDF" d="M103.871,509.457V138.543L0,34.672v578.655L103.871,509.457z"/>
<path id="logo" fill="#2D2C2C" d="M645.915,194.145l-59.879-63.266c-2.888-3.054-7.726-3.171-10.778-0.254L445.682,253.426
	l-12.195-11.541c-3.044-2.888-7.919-2.77-10.777,0.235l-59.947,63.305c-2.918,3.044-2.81,7.871,0.266,10.768l8.252,7.792
	l-49.769,47.222v-94.414l19.472,18.491c3.062,2.917,7.898,2.75,10.759-0.254l59.996-63.306c2.896-3.054,2.751-7.831-0.274-10.768
	l-95.373-90.333c-3.055-2.917-7.851-2.771-10.729,0.254l-59.909,63.266c-1.409,1.458-2.046,3.367-2.046,5.208v249.511l0,0
	c0,1.801,0.646,3.562,1.978,4.951l59.977,63.325c2.878,3.034,7.684,3.151,10.729,0.254l129.615-122.859l129.576,122.859
	c3.055,2.897,7.891,2.751,10.776-0.254l59.979-63.325c1.321-1.368,1.909-3.15,1.968-4.951l0,0v-249.49
	C648,197.512,647.324,195.642,645.915,194.145z M569.894,371.197l-49.823-47.212l49.823-47.183V371.197z"/>
</svg>
