<?xml version="1.0" encoding="utf-8"?>
<!-- Generator: Adobe Illustrator 16.0.0, SVG Export Plug-In . SVG Version: 6.00 Build 0)  -->
<!DOCTYPE svg PUBLIC "-//W3C//DTD SVG 1.1//EN" "http://www.w3.org/Graphics/SVG/1.1/DTD/svg11.dtd">
<svg version="1.1" id="logo-group-ani" xmlns="http://www.w3.org/2000/svg" xmlns:xlink="http://www.w3.org/1999/xlink" x="0px"
	 y="0px" width="648px" height="648px" viewBox="0 0 648 648" enable-background="new 0 0 648 648" xml:space="preserve">
<path fill="#DDDEDF" d="M103.871,509.457V138.543L0,34.672v578.655L103.871,509.457z"/>
<path id="p5" fill="#2D2C2C" d="M575.278,517.392c3.055,2.897,7.891,2.751,10.773-0.254l59.979-63.325
	c1.319-1.365,1.909-3.147,1.968-4.948l0,0v-249.49c-0.006-1.86-0.682-3.73-2.091-5.227L586.03,130.88
	c-2.89-3.054-7.729-3.171-10.778-0.254L321.507,371.207v-94.414l19.474,18.491c3.062,2.917,7.896,2.75,10.76-0.254l59.996-63.306
	c2.896-3.054,2.751-7.831-0.274-10.768l-95.373-90.333c-3.055-2.917-7.851-2.771-10.729,0.254l-59.909,63.266
	c-1.409,1.458-2.046,3.367-2.046,5.208v249.511l0,0c0,1.801,0.646,3.562,1.979,4.95l59.977,63.323
	c2.878,3.034,7.684,3.151,10.729,0.254l253.802-240.589v94.396l-49.82-47.212l-86.584-82.1c-3.044-2.888-7.919-2.77-10.777,0.235
	l-59.947,63.305c-2.918,3.044-2.81,7.871,0.269,10.768L575.278,517.392z"/>
<path id="p4" fill="#2D2C2C" d="M575.278,517.392c3.055,2.897,7.891,2.751,10.773-0.254l59.979-63.325
	c1.319-1.365,1.909-3.147,1.968-4.948l0,0v-249.49c-0.006-1.86-0.682-3.73-2.091-5.227L586.03,130.88
	c-2.89-3.054-7.729-3.171-10.778-0.254L321.506,371.208v-94.414l0,0l-0.006-14.959V136.328c0,0-0.037-0.636-0.983-1.531
	l-4.431-4.174c-3.055-2.917-7.851-2.771-10.729,0.254l-59.909,63.266c-1.409,1.458-2.046,3.367-2.046,5.208v249.511l0,0
	c0,1.801,0.646,3.562,1.979,4.95l59.978,63.323c2.878,3.034,7.684,3.151,10.729,0.254L569.89,276.801v94.396l-49.82-47.212
	l-86.584-82.1c-3.044-2.888-7.919-2.77-10.777,0.235l-59.947,63.305c-2.918,3.044-2.81,7.871,0.269,10.768L575.278,517.392z"/>
<path id="p3" fill="#2D2C2C" d="M575.278,517.392c3.055,2.897,7.891,2.751,10.773-0.254l59.979-63.325
	c1.319-1.365,1.908-3.147,1.968-4.948l0,0v-249.49c-0.006-1.86-0.682-3.73-2.091-5.227L586.03,130.88
	c-2.89-3.054-7.729-3.171-10.778-0.254L321.506,371.208l0,0l0,0H321.5l0,0l0,0l0,0l-75.233,71.198l0,0c0,0-2.864,2.312-2.864,6.05
	l0,0l0,0c0,1.801,0.646,3.969,1.979,5.355l59.977,63.325c2.878,3.034,7.685,3.151,10.729,0.254l253.802-240.59v94.396
	l-49.821-47.211l-86.584-82.1c-3.044-2.888-7.919-2.77-10.777,0.235l-59.946,63.305c-2.918,3.044-2.811,7.871,0.268,10.768
	L575.278,517.392z"/>
<path id="p2" fill="#2D2C2C" d="M575.278,517.396c3.055,2.896,7.891,2.75,10.773-0.256l59.979-63.323
	c1.319-1.367,1.908-3.149,1.968-4.95l0,0v-249.49c-0.006-1.86-0.682-3.729-2.091-5.228l-59.879-63.266
	c-2.89-3.054-7.729-3.171-10.778-0.254h0.006l0,0l0,0h-0.006l0,0l0,0l0,0l-5.364,4.705l0,0l0,0l0,0l0,0l0,0v141.472l0,0l0,0v94.396
	l-49.822-47.213l-86.584-82.1c-3.043-2.888-7.918-2.77-10.775,0.235l-59.947,63.305c-2.918,3.044-2.81,7.871,0.268,10.769
	L575.278,517.396z"/>
<path id="p1" fill="#2D2C2C" d="M575.279,517.396c3.055,2.896,7.891,2.75,10.773-0.256l59.979-63.323
	c1.319-1.367,1.908-3.149,1.967-4.95l0,0v-3.576l0,0l-78.111-74.089c0,0,0,0-0.006,0h0.006l0,0l0,0h-0.006l0,0l0,0l0,0h0.006l0,0
	l0,0l0,0l0,0l0,0l0,0l0,0l0,0l0,0l-49.821-47.213l-86.584-82.1c-3.045-2.888-7.92-2.77-10.777,0.235l-59.947,63.305
	c-2.918,3.044-2.81,7.871,0.269,10.769L575.279,517.396z"/>
<path id="p0" fill="#2D2C2C" d="M357.493,310.983L357.493,310.983l70.354-74.36l0,0l0,0l0,0l0,0l0,0c0,0,0.006,0,0,0l0,0l0,0l0,0
	l0,0l0,0l0,0l0,0l0,0l0,0l0,0l0,0l0,0l0,0l0,0l0,0l0,0l0,0l0,0l0,0l0,0L357.493,310.983L357.493,310.983L357.493,310.983z"/>
</svg>
