<?xml version="1.0" encoding="utf-8"?>
<!-- Generator: Adobe Illustrator 16.0.0, SVG Export Plug-In . SVG Version: 6.00 Build 0)  -->
<!DOCTYPE svg PUBLIC "-//W3C//DTD SVG 1.1//EN" "http://www.w3.org/Graphics/SVG/1.1/DTD/svg11.dtd">
<svg version="1.1" id="portfolio" xmlns="http://www.w3.org/2000/svg" xmlns:xlink="http://www.w3.org/1999/xlink" x="0px" y="0px"
	 width="835.065px" height="771.302px" viewBox="0 0 835.065 771.302" enable-background="new 0 0 835.065 771.302"
	 xml:space="preserve">
<polygon fill="#DDDEDF" points="652.557,76.496 93.533,76.496 93.533,589.07 179.463,674.99 203.095,674.99 203.079,675.017 
	655.606,675.017 741.533,589.07 741.533,165.477 "/>
<path fill="#5B5D5D" d="M163.953,240.424c9.618,0,17.415,7.797,17.415,17.415s-7.797,17.418-17.415,17.418
	s-17.416-7.8-17.416-17.418S154.332,240.424,163.953,240.424z M163.953,185.541c9.618,0,17.415,7.797,17.415,17.415
	s-7.797,17.419-17.415,17.419s-17.416-7.801-17.416-17.419S154.332,185.541,163.953,185.541z M163.953,130.633
	c9.618,0,17.415,7.797,17.415,17.415c0,9.618-7.797,17.415-17.415,17.415s-17.416-7.797-17.416-17.414
	C146.537,138.43,154.332,130.633,163.953,130.633z"/>
</svg>
