<svg id="portfolio" xmlns="http://www.w3.org/2000/svg" viewBox="0 231.276 200.779 185.447">
<polygon fill="#DDDEDF" points="173.21,231.276 0,231.276 0,390.094 26.625,416.716 33.947,416.716 33.942,416.724 174.155,416.724 
	200.779,390.094 200.779,258.846 "/>
<path fill="#5B5D5D" d="M21.819,282.068c2.98,0,5.396,2.416,5.396,5.396s-2.416,5.397-5.396,5.397
	s-5.396-2.417-5.396-5.397S18.838,282.068,21.819,282.068z M21.819,265.063c2.98,0,5.396,2.416,5.396,5.396
	s-2.416,5.397-5.396,5.397s-5.396-2.417-5.396-5.397S18.838,265.063,21.819,265.063z M21.819,248.05c2.98,0,5.396,2.416,5.396,5.396
	s-2.416,5.396-5.396,5.396s-5.396-2.416-5.396-5.396S18.838,248.05,21.819,248.05z"/>
</svg>
