<svg id="profile" xmlns="http://www.w3.org/2000/svg" viewBox="0 0 200.775 185.447">
<polygon fill="#DDDEDF" points="173.325,0.276 0.113,0.276 0.113,159.094 26.734,185.716 34.057,185.716 34.054,185.724 
	174.267,185.724 200.889,159.094 200.889,27.846 "/>

<path id="elip" fill="#5B5D5D" d="M21.931,51.068c2.98,0,5.396,2.416,5.396,5.396s-2.416,5.397-5.396,5.397s-5.396-2.417-5.396-5.397
	S18.95,51.068,21.931,51.068z M21.931,34.063c2.98,0,5.396,2.416,5.396,5.396s-2.416,5.397-5.396,5.397s-5.396-2.417-5.396-5.397
	S18.95,34.063,21.931,34.063z M21.931,17.05c2.98,0,5.396,2.416,5.396,5.396s-2.416,5.396-5.396,5.396s-5.396-2.416-5.396-5.396
	S18.95,17.05,21.931,17.05z"/>
</svg>
