<svg id="resources" xmlns="http://www.w3.org/2000/svg" viewBox="219.043 231.276 210.734 185.447">
<polygon fill="#DDDEDF" points="402.208,231.276 219.043,231.276 219.043,390.094 245.668,416.716 252.988,416.716 252.986,416.724 
	403.155,416.724 429.777,390.094 429.777,258.846 "/>
<path fill="#5B5D5D" d="M240.862,282.068c2.98,0,5.397,2.416,5.397,5.396s-2.417,5.397-5.397,5.397s-5.396-2.417-5.396-5.397
	S237.882,282.068,240.862,282.068z M240.862,265.063c2.98,0,5.397,2.416,5.397,5.396s-2.417,5.397-5.397,5.397
	s-5.396-2.417-5.396-5.397S237.882,265.063,240.862,265.063z M240.862,248.05c2.98,0,5.397,2.416,5.397,5.396
	s-2.417,5.396-5.397,5.396s-5.396-2.416-5.396-5.396S237.882,248.05,240.862,248.05z"/>
</svg>
